<?xml version="1.0" encoding="utf-8"?>
<!-- Generator: Adobe Illustrator 16.0.0, SVG Export Plug-In . SVG Version: 6.00 Build 0)  -->
<!DOCTYPE svg PUBLIC "-//W3C//DTD SVG 1.1//EN" "http://www.w3.org/Graphics/SVG/1.1/DTD/svg11.dtd">
<svg version="1.1" id="Calque_1" xmlns="http://www.w3.org/2000/svg" xmlns:xlink="http://www.w3.org/1999/xlink" x="0px" y="0px"
	 width="70px" height="74px" viewBox="0 0 70 74" enable-background="new 0 0 70 74" xml:space="preserve">
<g>
	<g>
		<path fill="#FFFFFF" d="M86.991,41.824l-2.012,4.312h-1.306l7.994-17.192l7.55,17.192h-1.28l-1.906-4.312H86.991z M91.615,31.846
			l-4.076,8.803h7.97L91.615,31.846z"/>
		<path fill="#FFFFFF" d="M104.861,46.136V29.153h1.176v15.805h9.535v1.177H104.861z"/>
		<path fill="#FFFFFF" d="M122.312,46.136V29.153h1.177v16.982H122.312z"/>
		<path fill="#FFFFFF" d="M138.3,46.318c-1.55,0-2.986-0.392-4.311-1.176c-1.323-0.784-2.369-1.839-3.135-3.173
			c-0.767-1.333-1.147-2.785-1.147-4.351c0-1.567,0.381-3.013,1.147-4.336c0.766-1.323,1.812-2.376,3.135-3.163
			c1.324-0.784,2.761-1.176,4.311-1.176c1.203,0,2.354,0.248,3.462,0.746c1.105,0.496,2.077,1.196,2.913,2.103l-0.916,0.809
			c-0.696-0.782-1.519-1.391-2.466-1.829c-0.951-0.436-1.948-0.653-2.993-0.653c-1.341,0-2.578,0.336-3.708,1.007
			c-1.132,0.671-2.034,1.58-2.705,2.73c-0.671,1.151-1.007,2.403-1.007,3.762s0.336,2.613,1.007,3.762
			c0.671,1.148,1.573,2.059,2.705,2.728c1.13,0.671,2.367,1.008,3.708,1.008c1.115,0,2.173-0.244,3.175-0.731
			c1.002-0.488,1.859-1.168,2.573-2.039l0.94,0.732c-0.819,1.027-1.811,1.826-2.978,2.39
			C140.842,46.036,139.605,46.318,138.3,46.318z"/>
		<path fill="#FFFFFF" d="M150.763,46.136V29.153h10.998v1.203h-9.823v6.688h7.655v1.201h-7.655v6.662h9.823v1.229H150.763z"/>
		<path fill="#FFFFFF" d="M184.619,41.223c2.248,2.265,3.866,3.902,4.86,4.913h-1.646l-1.935-1.882
			c-0.8,0.629-1.542,1.127-2.221,1.502c-0.678,0.375-1.393,0.562-2.143,0.562c-1.009,0-1.933-0.2-2.771-0.602
			c-0.833-0.4-1.494-0.949-1.983-1.645c-0.487-0.697-0.731-1.455-0.731-2.274c0-1.043,0.279-1.892,0.835-2.545
			c0.56-0.653,1.358-1.233,2.404-1.74l-0.496-0.493c-0.435-0.435-0.823-0.968-1.161-1.595c-0.34-0.625-0.511-1.342-0.511-2.141
			c0.018-0.576,0.14-1.124,0.364-1.646c0.229-0.524,0.549-0.985,0.967-1.386c0.42-0.401,0.896-0.705,1.437-0.915
			c0.541-0.208,1.109-0.312,1.7-0.312c0.593,0,1.16,0.104,1.709,0.312c0.552,0.21,1.031,0.514,1.449,0.915
			c0.421,0.401,0.739,0.862,0.97,1.386c0.224,0.522,0.338,1.07,0.338,1.646c0,0.853-0.365,1.665-1.097,2.429
			c-0.331,0.349-0.705,0.671-1.124,0.967l-0.888-0.864c0.609-0.381,1.087-0.796,1.426-1.24c0.338-0.444,0.506-0.874,0.506-1.292
			c0-0.4-0.079-0.792-0.246-1.177c-0.165-0.382-0.397-0.713-0.691-0.994c-0.647-0.591-1.432-0.888-2.352-0.888
			c-0.907,0-1.681,0.297-2.325,0.888c-0.612,0.559-0.933,1.282-0.967,2.17c0,0.574,0.131,1.105,0.394,1.594
			c0.258,0.488,0.536,0.878,0.833,1.175C180.674,37.235,182.374,38.96,184.619,41.223z M183.234,44.646
			c0.574-0.312,1.183-0.724,1.828-1.228l-4.882-5.016c-1.03,0.471-1.78,0.95-2.248,1.437c-0.473,0.488-0.704,1.14-0.704,1.958
			c0,0.612,0.191,1.169,0.571,1.672c0.385,0.506,0.905,0.906,1.568,1.203c0.663,0.297,1.386,0.444,2.168,0.444
			C182.095,45.116,182.659,44.958,183.234,44.646z"/>
		<path fill="#FFFFFF" d="M215.253,38.835c0.563,0.739,0.848,1.581,0.848,2.521c0,0.609-0.138,1.203-0.407,1.788
			c-0.266,0.584-0.655,1.103-1.162,1.556c-0.521,0.454-1.134,0.804-1.838,1.057c-0.709,0.253-1.452,0.379-2.236,0.379h-6.241
			l0.022-16.982h4.858c1.585,0,2.85,0.445,3.791,1.333c0.433,0.399,0.769,0.86,1.004,1.384c0.236,0.523,0.354,1.062,0.354,1.622
			c0,0.695-0.164,1.331-0.483,1.905c-0.324,0.576-0.721,1.02-1.189,1.333l-0.235,0.156c0.332,0.104,0.618,0.209,0.86,0.314
			C214.002,37.548,214.684,38.091,215.253,38.835z M205.414,36.547h3.634c0.467,0,0.86-0.026,1.174-0.077
			c0.315-0.053,0.627-0.141,0.94-0.263c0.453-0.19,0.883-0.521,1.296-0.992c0.406-0.47,0.611-1.046,0.611-1.723
			c0-0.542-0.152-1.053-0.458-1.531c-0.303-0.478-0.756-0.866-1.358-1.164c-0.598-0.294-1.317-0.441-2.156-0.441h-3.683V36.547z
			 M212.807,44.436c0.682-0.347,1.203-0.794,1.568-1.343c0.366-0.549,0.55-1.128,0.55-1.737c0-0.681-0.213-1.295-0.641-1.843
			c-0.427-0.549-0.938-0.952-1.526-1.215c-0.839-0.365-1.889-0.549-3.161-0.549h-4.183v7.21h5.043
			C211.344,44.958,212.129,44.788,212.807,44.436z"/>
		<path fill="#FFFFFF" d="M229.604,46.318c-1.549,0-2.985-0.388-4.31-1.161c-1.322-0.778-2.37-1.832-3.135-3.161
			c-0.765-1.333-1.149-2.784-1.149-4.353c0-1.566,0.385-3.018,1.149-4.351c0.765-1.331,1.812-2.383,3.135-3.16
			c1.324-0.774,2.761-1.163,4.31-1.163c1.552,0,2.989,0.389,4.312,1.163c1.325,0.776,2.368,1.829,3.135,3.16
			c0.764,1.333,1.15,2.785,1.15,4.351c0,1.568-0.387,3.02-1.15,4.353c-0.767,1.329-1.81,2.383-3.135,3.161
			C232.594,45.93,231.156,46.318,229.604,46.318z M229.604,30.172c-1.338,0-2.576,0.337-3.709,1.008
			c-1.131,0.671-2.032,1.576-2.703,2.714c-0.669,1.144-1.006,2.394-1.006,3.75c0,1.358,0.337,2.611,1.006,3.75
			c0.671,1.14,1.572,2.045,2.703,2.715c1.133,0.67,2.371,1.007,3.709,1.007c1.342,0,2.58-0.336,3.71-1.007
			c1.135-0.67,2.029-1.576,2.694-2.715c0.661-1.14,0.992-2.392,0.992-3.75c0-1.356-0.331-2.605-0.992-3.75
			c-0.665-1.138-1.56-2.043-2.694-2.714C232.185,30.509,230.946,30.172,229.604,30.172z"/>
		<path fill="#FFFFFF" d="M254.985,38.835c0.566,0.739,0.851,1.581,0.851,2.521c0,0.609-0.135,1.203-0.405,1.788
			s-0.659,1.103-1.167,1.556c-0.521,0.454-1.133,0.804-1.838,1.057c-0.704,0.253-1.45,0.379-2.235,0.379h-6.242l0.027-16.982h4.859
			c1.584,0,2.844,0.445,3.785,1.333c0.438,0.399,0.773,0.86,1.004,1.384c0.238,0.523,0.356,1.062,0.356,1.622
			c0,0.695-0.161,1.331-0.485,1.905c-0.323,0.576-0.718,1.02-1.187,1.333l-0.236,0.156c0.331,0.104,0.621,0.209,0.864,0.314
			C253.735,37.55,254.418,38.091,254.985,38.835z M245.148,36.547h3.634c0.468,0,0.86-0.026,1.177-0.077
			c0.312-0.053,0.625-0.141,0.94-0.263c0.448-0.19,0.883-0.521,1.291-0.992c0.41-0.47,0.611-1.046,0.611-1.723
			c0-0.542-0.151-1.053-0.455-1.531c-0.306-0.478-0.759-0.866-1.356-1.164c-0.602-0.294-1.323-0.441-2.155-0.441h-3.687V36.547z
			 M252.544,44.436c0.678-0.347,1.199-0.794,1.565-1.343c0.365-0.549,0.549-1.128,0.549-1.737c0-0.681-0.214-1.295-0.64-1.843
			c-0.428-0.549-0.938-0.952-1.527-1.215c-0.835-0.365-1.889-0.549-3.161-0.549h-4.182v7.21h5.042
			C251.082,44.958,251.862,44.788,252.544,44.436z"/>
	</g>
	<circle fill="#FFD800" cx="189.141" cy="40.616" r="1.593"/>
</g>
<g>
	<g>
		<path fill="#FFD800" d="M27.02,34.787c0.147,0.181,0.287,0.356,0.423,0.528c5.559-1.511,10.958-1.582,16.458-0.188
			c0.343-0.406,0.702-0.841,1.075-1.316c2.257-2.855,8.411-12.573,9.284-13.679c1.648,12.593,3.571,27.308,5.196,39.72
			c5.48-5.846,8.842-13.701,8.842-22.345c0-18.052-14.636-32.687-32.688-32.687c-18.053,0-32.687,14.635-32.687,32.687
			c0,8.667,3.378,16.54,8.883,22.39c1.631-12.455,3.358-27.081,5.018-39.76C19.184,22.892,26.82,34.541,27.02,34.787z"/>
		<path fill="#010102" d="M35.61,70.193c9.408,0,17.882-3.98,23.846-10.343c-1.625-12.412-3.548-27.126-5.196-39.72
			c-0.873,1.106-7.027,10.824-9.284,13.679c-0.373,0.476-0.732,0.91-1.075,1.316c-5.499-1.394-10.898-1.323-16.458,0.188
			c-0.136-0.171-0.276-0.347-0.423-0.528c-0.199-0.246-7.835-11.895-10.196-14.652c-1.66,12.679-3.387,27.305-5.018,39.76
			C17.768,66.231,26.223,70.193,35.61,70.193z"/>
	</g>
	<path fill="#FFD802" d="M47.928,53.831"/>
	<g>
		<path fill="#FFD800" d="M40.021,57.065c-0.04-0.187,0.002-0.38,0.053-0.563c0.194-0.7,0.514-1.367,0.918-1.969
			c0.633-0.936,1.479-1.725,2.465-2.27c0.987-0.546,2.112-0.842,3.24-0.835c1.966,0.012,3.903,0.991,5.08,2.569
			c-0.07,1.786-1.062,3.511-2.572,4.469c-1.267,0.8-2.831,1.06-4.32,0.884c-1.485-0.179-2.904-0.766-4.185-1.543
			c-0.149-0.092-0.295-0.184-0.419-0.302C40.158,57.385,40.055,57.233,40.021,57.065z"/>
		<path fill="#010102" d="M48.797,51.677c-0.212-0.077-0.422-0.144-0.643-0.199c-0.239-0.059-0.479-0.103-0.723-0.135
			c-0.243-0.03-0.488-0.046-0.735-0.05c-0.143,0-0.281,0.006-0.422,0.012c-0.141,0.01-0.282,0.022-0.421,0.041
			c-0.141,0.017-0.279,0.039-0.418,0.066c-0.138,0.027-0.273,0.059-0.411,0.093c-0.274,0.07-0.542,0.157-0.804,0.262
			s-0.518,0.227-0.765,0.36c-0.244,0.136-0.482,0.289-0.712,0.454c-0.178,0.13-0.347,0.273-0.514,0.42
			c-0.096,0.346-0.148,0.711-0.148,1.091c0,2.169,1.68,3.927,3.757,3.927c2.076,0,3.757-1.758,3.757-3.927
			C49.596,53.181,49.297,52.344,48.797,51.677z"/>
		<path fill="#FFFFFF" d="M43.687,54.417c0,0.598,0.438,1.086,0.974,1.086c0.54,0,0.975-0.488,0.975-1.086
			c0-0.6-0.435-1.086-0.975-1.086C44.125,53.33,43.687,53.816,43.687,54.417z"/>
	</g>
	<g>
		<path fill="#FFD800" d="M31.31,57.065c0.04-0.187-0.001-0.38-0.054-0.563c-0.194-0.7-0.512-1.367-0.919-1.969
			c-0.629-0.936-1.478-1.725-2.465-2.27c-0.986-0.546-2.111-0.842-3.238-0.835c-1.967,0.012-3.903,0.991-5.079,2.569
			c0.068,1.785,1.062,3.511,2.572,4.469c1.266,0.8,2.831,1.06,4.319,0.884c1.487-0.179,2.905-0.766,4.186-1.543
			c0.148-0.092,0.295-0.184,0.418-0.302C31.174,57.385,31.275,57.233,31.31,57.065z"/>
		<path fill="#010102" d="M22.533,51.677c0.21-0.077,0.424-0.144,0.643-0.199c0.238-0.059,0.48-0.104,0.722-0.135
			c0.245-0.03,0.491-0.046,0.735-0.05c0.141,0,0.281,0.006,0.422,0.012c0.14,0.01,0.282,0.022,0.421,0.041
			c0.14,0.017,0.278,0.039,0.417,0.066c0.138,0.027,0.275,0.059,0.412,0.093c0.273,0.07,0.542,0.157,0.805,0.262
			c0.261,0.104,0.516,0.227,0.763,0.36c0.247,0.136,0.484,0.289,0.711,0.454c0.179,0.13,0.348,0.273,0.514,0.419
			c0.096,0.347,0.149,0.713,0.149,1.092c0,2.169-1.683,3.927-3.758,3.927c-2.076,0-3.758-1.758-3.758-3.927
			C21.733,53.181,22.033,52.344,22.533,51.677z"/>
		<ellipse fill="#FFFFFF" cx="26.636" cy="54.455" rx="0.973" ry="1.084"/>
	</g>
</g>
</svg>
