<?xml version="1.0" standalone="no"?>
<!DOCTYPE svg PUBLIC "-//W3C//DTD SVG 20010904//EN"
 "http://www.w3.org/TR/2001/REC-SVG-20010904/DTD/svg10.dtd">
<svg version="1.0" xmlns="http://www.w3.org/2000/svg"
 width="290.000000pt" height="174.000000pt" viewBox="0 0 290.000000 174.000000"
 preserveAspectRatio="xMidYMid meet">

<g transform="translate(0.000000,174.000000) scale(0.100000,-0.100000)"
fill="#000000" stroke="none">
<path d="M713 1565 c-185 -41 -341 -191 -388 -372 -35 -136 -7 -301 71 -419
138 -207 423 -283 652 -173 50 25 67 50 52 79 -15 27 -46 25 -116 -7 -53 -25
-70 -28 -164 -28 -97 0 -110 2 -173 32 -189 90 -288 304 -232 499 71 250 346
377 584 268 62 -28 84 -30 101 -9 46 55 -86 127 -255 140 -43 3 -94 -1 -132
-10z"/>
<path d="M1420 1564 c-302 -65 -480 -379 -380 -670 54 -157 195 -287 357 -329
74 -19 183 -19 258 0 69 18 164 67 195 100 l22 23 63 -43 c88 -60 163 -86 265
-92 100 -6 173 7 249 45 63 31 81 53 65 80 -16 25 -49 26 -97 3 -141 -68 -334
-46 -451 51 l-29 24 27 40 c39 60 67 150 73 234 14 205 -102 405 -287 493
-118 56 -209 68 -330 41z m238 -99 c90 -27 198 -118 242 -204 54 -108 62 -230
21 -346 -32 -91 -38 -94 -108 -51 -80 50 -164 77 -254 83 -162 12 -351 -64
-313 -124 17 -27 38 -27 111 3 58 24 82 28 163 28 71 0 109 -5 150 -20 59 -22
140 -69 140 -82 0 -16 -101 -74 -159 -93 -203 -63 -419 33 -507 226 -77 167
-44 346 85 476 114 113 270 151 429 104z"/>
<path d="M2175 1573 c-16 -2 -55 -11 -85 -19 -106 -30 -159 -70 -144 -108 11
-29 50 -29 108 -2 107 51 258 51 358 1 73 -37 108 -30 108 22 0 57 -220 125
-345 106z"/>
<path d="M198 304 c-13 -28 -5 -49 25 -68 12 -8 20 -7 29 3 11 12 10 13 -4 8
-19 -7 -48 16 -48 37 0 17 18 32 45 39 15 3 13 5 -8 6 -20 1 -30 -6 -39 -25z"/>
<path d="M306 290 c-18 -45 -21 -75 -5 -47 13 22 45 22 53 1 4 -9 9 -15 11
-12 7 6 -27 98 -36 98 -4 0 -14 -18 -23 -40z m34 -6 c0 -8 -6 -14 -14 -14 -9
0 -12 7 -9 20 6 22 23 18 23 -6z"/>
<path d="M401 283 c2 -45 2 -46 8 -13 l6 34 13 -29 c13 -29 14 -29 28 -10 8
10 15 24 15 29 1 6 5 -7 9 -29 l7 -40 2 53 c1 60 -9 66 -31 20 l-15 -33 -17
33 c-9 17 -19 32 -21 32 -3 0 -4 -21 -4 -47z"/>
<path d="M530 281 c0 -42 3 -51 18 -51 31 0 41 15 39 55 -2 36 -5 40 -29 43
-27 3 -28 2 -28 -47z m48 27 c-7 -19 -38 -22 -38 -4 0 10 9 16 21 16 12 0 19
-5 17 -12z m0 -45 c-2 -10 -10 -18 -18 -18 -8 0 -16 8 -18 18 -2 12 3 17 18
17 15 0 20 -5 18 -17z"/>
<path d="M632 278 l2 -53 3 48 c3 33 8 47 19 47 16 0 19 -21 5 -35 -6 -6 -3
-19 9 -35 11 -14 20 -20 20 -13 0 6 -4 14 -9 18 -5 3 -7 21 -4 40 5 33 4 35
-21 35 -25 0 -26 -2 -24 -52z"/>
<path d="M723 280 c0 -30 2 -43 4 -27 2 15 2 39 0 55 -2 15 -4 2 -4 -28z"/>
<path d="M770 285 c0 -53 17 -66 55 -41 45 30 27 86 -27 86 -27 0 -28 -2 -28
-45z m65 16 c7 -23 -2 -48 -22 -55 -23 -9 -33 2 -33 40 0 29 3 34 24 34 15 0
27 -7 31 -19z"/>
<path d="M892 318 c-17 -17 -15 -54 4 -72 17 -18 24 -19 48 -10 22 8 21 44 -1
44 -15 0 -16 -2 -3 -10 25 -15 -2 -35 -29 -21 -36 20 -25 66 19 74 l25 4 -25
2 c-15 0 -31 -4 -38 -11z"/>
<path d="M990 280 c0 -48 1 -50 28 -49 26 0 26 1 5 9 -13 5 -23 16 -23 24 0 8
10 17 23 19 l22 4 -22 2 c-13 0 -23 7 -23 15 0 8 10 17 23 19 19 4 18 4 -5 6
-27 1 -28 -1 -28 -49z"/>
<path d="M1128 305 c-9 -19 -8 -29 6 -50 9 -14 24 -25 34 -25 10 0 22 -4 28
-10 13 -13 15 81 2 97 -18 22 -57 15 -70 -12z m66 -1 c9 -23 8 -31 -9 -48 -29
-29 -64 10 -43 48 12 20 44 21 52 0z"/>
<path d="M1240 296 c0 -32 20 -66 39 -66 19 0 32 31 28 67 l-4 38 -1 -41 c-1
-25 -8 -44 -16 -47 -20 -8 -26 2 -26 45 0 21 -4 38 -10 38 -5 0 -10 -15 -10
-34z"/>
<path d="M1356 283 c-18 -53 -20 -66 -5 -40 5 9 19 17 29 17 10 0 24 -8 29
-17 16 -28 13 2 -5 47 -9 22 -20 40 -24 40 -5 0 -15 -21 -24 -47z m32 -12
c-15 -5 -21 7 -13 26 7 17 8 17 15 -2 4 -11 3 -22 -2 -24z"/>
<path d="M1452 278 c1 -48 2 -49 5 -13 l5 40 28 -35 29 -35 -1 50 c-1 45 -1
47 -7 15 l-6 -35 -20 33 c-11 17 -23 32 -27 32 -4 0 -7 -24 -6 -52z"/>
<path d="M1562 323 c12 -3 18 -18 21 -51 l3 -47 2 47 c2 35 6 48 20 51 9 3 -1
5 -23 5 -22 0 -32 -2 -23 -5z"/>
<path d="M1652 293 c-2 -33 2 -45 19 -53 31 -17 49 4 47 54 l-1 41 -4 -42 c-7
-69 -47 -64 -56 7 -4 34 -4 33 -5 -7z"/>
<path d="M1761 278 c2 -52 2 -52 8 -13 l6 40 17 -30 16 -30 14 30 13 29 6 -34
c6 -33 6 -32 8 13 0 26 -1 47 -4 47 -2 0 -12 -15 -21 -32 l-17 -33 -15 33
c-22 46 -32 40 -31 -20z"/>
<path d="M1947 323 c-4 -3 -7 -21 -7 -39 0 -40 29 -62 58 -44 15 10 14 10 -4
5 -26 -7 -47 16 -42 47 2 16 12 25 33 29 l30 7 -31 1 c-17 0 -34 -2 -37 -6z"/>
<path d="M2040 310 c-21 -39 16 -89 54 -74 21 8 32 52 19 73 -16 25 -60 26
-73 1z m68 -19 c5 -31 -25 -56 -45 -40 -14 12 -18 51 -6 63 16 15 48 1 51 -23z"/>
<path d="M2161 283 c2 -45 2 -46 8 -13 l6 34 13 -29 14 -30 16 30 17 30 6 -40
c6 -39 6 -39 8 13 1 60 -9 66 -31 20 l-15 -33 -17 33 c-9 17 -19 32 -21 32 -3
0 -4 -21 -4 -47z"/>
<path d="M2291 278 c1 -29 4 -44 6 -33 2 11 14 25 26 30 32 15 29 49 -5 53
-28 3 -28 3 -27 -50z m42 36 c9 -10 -4 -34 -19 -34 -8 0 -14 9 -14 20 0 19 19
27 33 14z"/>
<path d="M2382 294 c-2 -50 16 -71 47 -54 17 8 21 20 19 53 -1 40 -1 41 -5 7
-9 -72 -48 -73 -56 -2 l-4 37 -1 -41z"/>
<path d="M2492 323 c12 -3 18 -18 21 -51 l3 -47 2 47 c2 35 6 48 20 51 9 3 -1
5 -23 5 -22 0 -32 -2 -23 -5z"/>
<path d="M2583 280 c0 -30 2 -43 4 -27 2 15 2 39 0 55 -2 15 -4 2 -4 -28z"/>
<path d="M2632 280 c1 -52 1 -53 7 -15 l6 40 23 -37 c13 -21 26 -38 28 -38 2
0 3 24 2 53 -1 40 -2 44 -5 17 l-5 -35 -29 35 -28 35 1 -55z"/>
<path d="M2740 305 c-5 -14 -7 -32 -4 -40 8 -21 39 -36 58 -29 17 7 22 44 6
44 -5 0 -7 -6 -4 -14 3 -8 0 -17 -6 -21 -18 -11 -41 16 -38 44 2 20 10 27 33
32 l30 7 -33 1 c-26 1 -34 -4 -42 -24z"/>
</g>
</svg>
