<?xml version="1.0" encoding="UTF-8"?>
<svg version="1.1" xmlns="http://www.w3.org/2000/svg" width="800" height="200">
<path d="M0 0 C264 0 528 0 800 0 C800 66 800 132 800 200 C536 200 272 200 0 200 C0 134 0 68 0 0 Z " fill="#C7372A" transform="translate(0,0)"/>
<path d="M0 0 C1.16147615 -0.0013775 2.32295231 -0.00275499 3.51962471 -0.00417423 C4.80526251 -0.00057612 6.09090031 0.00302198 7.41549683 0.00672913 C8.79743891 0.00703534 10.17938115 0.00690218 11.56132317 0.00636387 C15.26986365 0.00613765 18.97837202 0.01194324 22.68690491 0.0189743 C26.1639008 0.02465946 29.64088878 0.02493689 33.1178894 0.02565002 C43.29375631 0.03090219 53.4696172 0.04486328 63.64547729 0.05775452 C86.37422729 0.07837952 109.10297729 0.09900452 132.52047729 0.12025452 C132.52047729 66.12025452 132.52047729 132.12025452 132.52047729 200.12025452 C6.13047729 200.12025452 -120.25952271 200.12025452 -250.47952271 200.12025452 C-248.49952271 199.13025452 -248.49952271 199.13025452 -246.47952271 198.12025452 C-247.53139771 197.37775452 -247.53139771 197.37775452 -248.60452271 196.62025452 C-254.47115296 191.5188369 -258.98232175 185.59506308 -259.85452271 177.74525452 C-259.19549894 171.37469143 -256.42696133 167.6444363 -251.72952271 163.55775452 C-242.32458712 156.66286764 -229.76231173 153.37681232 -218.47952271 151.12025452 C-217.22397583 150.86502014 -215.96842896 150.60978577 -214.67483521 150.34681702 C-198.7914697 147.38804372 -182.58389884 146.92309507 -166.47952271 146.12025452 C-167.26883179 145.33328186 -168.05814087 144.5463092 -168.87136841 143.73548889 C-179.40070981 133.17756461 -179.40070981 133.17756461 -179.85452271 124.68275452 C-179.72677512 119.19873325 -177.4016329 116.17965829 -173.72952271 112.24525452 C-170.28173697 110.52136165 -167.30443252 110.92900903 -163.47952271 111.12025452 C-163.47952271 109.14025452 -163.47952271 107.16025452 -163.47952271 105.12025452 C-160.01452271 104.13025452 -160.01452271 104.13025452 -156.47952271 103.12025452 C-156.36689087 104.05635559 -156.36689087 104.05635559 -156.25198364 105.0113678 C-155.68356131 107.27718578 -155.68356131 107.27718578 -153.58987427 108.16273499 C-148.02930458 109.73811979 -143.05898158 110.35052347 -137.28811646 110.28114319 C-119.5285914 110.07275796 -103.0883979 114.58252645 -86.02151489 118.96888733 C-79.40979088 120.65924748 -72.7591975 122.17165137 -66.10452271 123.68275452 C-64.01329517 124.16286756 -61.92213958 124.64329412 -59.83108521 125.12416077 C-58.38060574 125.45637269 -56.93010306 125.7884834 -55.47952271 126.12025452 C-55.47952271 124.14025452 -55.47952271 122.16025452 -55.47952271 120.12025452 C-54.45471802 119.9384967 -53.42991333 119.75673889 -52.37405396 119.56947327 C-51.01327981 119.31608774 -49.65260797 119.06215232 -48.29202271 118.80775452 C-47.61848755 118.6898053 -46.94495239 118.57185608 -46.25100708 118.45033264 C-42.0730656 117.65550475 -38.85296406 116.73167486 -35.47952271 114.12025452 C-34.70159324 111.53051865 -34.70159324 111.53051865 -34.77249146 108.57728577 C-34.74348755 107.50414124 -34.71448364 106.4309967 -34.68460083 105.32533264 C-34.67589966 103.64600647 -34.67589966 103.64600647 -34.66702271 101.93275452 C-34.64188599 100.80160217 -34.61674927 99.67044983 -34.59085083 98.50502014 C-34.53189416 95.71047376 -34.50286802 92.91532525 -34.47952271 90.12025452 C-38.76952271 90.12025452 -43.05952271 90.12025452 -47.47952271 90.12025452 C-47.47952271 90.78025452 -47.47952271 91.44025452 -47.47952271 92.12025452 C-48.51077271 91.79025452 -49.54202271 91.46025452 -50.60452271 91.12025452 C-60.48236202 88.68582249 -70.03163025 89.70556679 -79.47952271 93.12025452 C-81.58889771 93.86244202 -81.58889771 93.86244202 -83.47952271 94.12025452 C-86.10452271 91.80775452 -86.10452271 91.80775452 -88.47952271 89.12025452 C-89.13952271 88.46025452 -89.79952271 87.80025452 -90.47952271 87.12025452 C-90.58264771 86.29525452 -90.68577271 85.47025452 -90.79202271 84.62025452 C-91.01889771 83.79525452 -91.24577271 82.97025452 -91.47952271 82.12025452 C-93.1402512 81.43893001 -94.8072897 80.77283325 -96.47952271 80.12025452 C-99.12501346 76.27226796 -98.71860854 72.07371781 -98.13577271 67.61634827 C-96.80095616 62.5392782 -93.66558884 59.58856911 -89.39749146 56.72181702 C-87.13293117 55.41305188 -84.8364633 54.2531705 -82.47952271 53.12025452 C-81.82596802 52.77220764 -81.17241333 52.42416077 -80.49905396 52.06556702 C-57.81266271 40.74431181 -28.14229512 40.8928995 -3.47952271 41.12025452 C-3.47952271 40.46025452 -3.47952271 39.80025452 -3.47952271 39.12025452 C-4.28389771 38.77994202 -4.28389771 38.77994202 -5.10452271 38.43275452 C-11.54650595 34.87271114 -16.3839488 29.82026379 -19.47952271 23.12025452 C-20.46154376 18.18039101 -20.08763059 14.4378216 -17.97952271 9.87025452 C-12.81610647 4.19049666 -7.79437086 -0.00707293 0 0 Z " fill="#C73729" transform="translate(667.4795227050781,-0.1202545166015625)"/>
<path d="M0 0 C1.54046997 -0.0049926 1.54046997 -0.0049926 3.11206055 -0.01008606 C5.273433 -0.01511503 7.43481311 -0.01749564 9.59619141 -0.01733398 C12.83900348 -0.01950713 16.08146721 -0.03766996 19.32421875 -0.05664062 C35.1983631 -0.10076896 51.42362992 0.04621121 66.8125 4.41796875 C67.98377441 4.74220825 67.98377441 4.74220825 69.17871094 5.07299805 C78.85692946 7.87632342 87.09012753 11.36843867 93.765625 19.140625 C95.21221677 21.78422052 95.3406217 23.18619902 94.875 26.16796875 C93.265625 28.921875 93.265625 28.921875 91.125 31.73046875 C90.42890625 32.65988281 89.7328125 33.58929688 89.015625 34.546875 C86.875 37.16796875 86.875 37.16796875 84.70703125 39.25390625 C82.79047056 41.25628309 82.11469499 42.61198322 81.3125 45.23046875 C80.35558357 48.3270741 79.47136135 50.16246425 76.875 52.16796875 C71.3987577 54.62668978 65.59920411 54.85902499 59.6875 55.29296875 C58.55723389 55.37788574 57.42696777 55.46280273 56.26245117 55.55029297 C37.83797683 56.74861316 19.32715708 56.33440047 0.875 56.16796875 C0.875 57.81796875 0.875 59.46796875 0.875 61.16796875 C1.47038574 61.21808105 2.06577148 61.26819336 2.67919922 61.31982422 C5.3703614 61.55157632 8.06009264 61.79709727 10.75 62.04296875 C11.68714844 62.12160156 12.62429687 62.20023438 13.58984375 62.28125 C14.48574219 62.36503906 15.38164062 62.44882813 16.3046875 62.53515625 C17.13210449 62.60847168 17.95952148 62.68178711 18.81201172 62.75732422 C20.875 63.16796875 20.875 63.16796875 22.875 65.16796875 C25.92078568 65.93053056 25.92078568 65.93053056 29.375 66.41796875 C31.12296875 66.70414063 31.12296875 66.70414063 32.90625 66.99609375 C34.37578125 67.08117187 34.37578125 67.08117187 35.875 67.16796875 C36.535 66.50796875 37.195 65.84796875 37.875 65.16796875 C40.95098702 64.96752944 43.93490735 64.88829127 47.01171875 64.90234375 C47.92452103 64.9004303 48.8373233 64.89851685 49.77778625 64.89654541 C51.71375808 64.89518242 53.64973901 64.89888677 55.58569336 64.90722656 C58.53325299 64.91786321 61.48019456 64.90736703 64.42773438 64.89453125 C66.30989717 64.89585403 68.19205958 64.89841886 70.07421875 64.90234375 C70.95051437 64.89829529 71.82681 64.89424683 72.72966003 64.89007568 C84.68751017 64.98047892 84.68751017 64.98047892 87.875 68.16796875 C88.01693337 71.17127893 87.91736378 74.16014009 87.875 77.16796875 C84.245 76.83796875 80.615 76.50796875 76.875 76.16796875 C76.545 74.51796875 76.215 72.86796875 75.875 71.16796875 C62.015 70.67296875 62.015 70.67296875 47.875 70.16796875 C47.875 74.78796875 47.875 79.40796875 47.875 84.16796875 C47.09125 83.56984375 46.3075 82.97171875 45.5 82.35546875 C35.41147732 75.823499 22.25693207 75.65055001 10.703125 77.7421875 C6.14176131 79.04839619 2.10009831 81.01316861 -2.125 83.16796875 C-2.15184679 80.52206861 -2.17176357 77.87643779 -2.1875 75.23046875 C-2.19587891 74.47572266 -2.20425781 73.72097656 -2.21289062 72.94335938 C-2.22152441 71.01802562 -2.17724333 69.09261294 -2.125 67.16796875 C-0.15677114 65.19973989 3.22308709 65.50548494 5.875 65.16796875 C5.23691406 64.96300781 4.59882812 64.75804688 3.94140625 64.546875 C3.11511719 64.27746094 2.28882812 64.00804687 1.4375 63.73046875 C0.61378906 63.46363281 -0.20992188 63.19679687 -1.05859375 62.921875 C-3.125 62.16796875 -3.125 62.16796875 -4.125 61.16796875 C-4.16563832 59.5017976 -4.167721 57.8340878 -4.125 56.16796875 C-4.87595947 56.12309326 -5.62691895 56.07821777 -6.40063477 56.03198242 C-9.83054558 55.81958029 -13.25887707 55.58770081 -16.6875 55.35546875 C-18.45963867 55.25008789 -18.45963867 55.25008789 -20.26757812 55.14257812 C-34.12048193 54.17248682 -34.12048193 54.17248682 -39.125 49.16796875 C-39.73850042 46.97850395 -40.27059812 44.76565018 -40.75 42.54296875 C-41.01039062 41.35445312 -41.27078125 40.1659375 -41.5390625 38.94140625 C-41.73242188 38.02617188 -41.92578125 37.1109375 -42.125 36.16796875 C-65.15366295 35.58741422 -84.82527075 40.34290708 -103.4453125 54.45703125 C-107.0924533 58.17202583 -106.25664019 63.30988416 -106.22265625 68.21484375 C-106.22053383 69.37164642 -106.22053383 69.37164642 -106.21836853 70.55181885 C-106.21278534 73.00724213 -106.20023595 75.46257317 -106.1875 77.91796875 C-106.18248283 79.58593618 -106.1779203 81.25390504 -106.17382812 82.921875 C-106.16282141 87.00394162 -106.14556836 91.08593956 -106.125 95.16796875 C-107.61 95.66296875 -107.61 95.66296875 -109.125 96.16796875 C-108.12128143 97.45236242 -107.09595632 98.71987917 -106.0625 99.98046875 C-105.49402344 100.68816406 -104.92554687 101.39585938 -104.33984375 102.125 C-97.65983225 108.28663318 -90.3018678 107.53875317 -81.6875 107.35546875 C-80.47900391 107.34193359 -79.27050781 107.32839844 -78.02539062 107.31445312 C-75.05812918 107.27926821 -72.09180063 107.23003571 -69.125 107.16796875 C-70.115 106.17796875 -70.115 106.17796875 -71.125 105.16796875 C-71.25 102.54296875 -71.25 102.54296875 -71.125 100.16796875 C-58.67024101 99.24640475 -46.26800382 99.01117712 -33.78125 99.03759766 C-30.70568102 99.04304728 -27.63025258 99.03757032 -24.5546875 99.03125 C-22.59114551 99.03190938 -20.62760361 99.03318763 -18.6640625 99.03515625 C-17.29080307 99.0321199 -17.29080307 99.0321199 -15.88980103 99.02902222 C-14.6210463 99.03375046 -14.6210463 99.03375046 -13.32666016 99.03857422 C-12.58517731 99.03936981 -11.84369446 99.04016541 -11.07974243 99.04098511 C-9.125 99.16796875 -9.125 99.16796875 -6.125 100.16796875 C-5.795 100.82796875 -5.465 101.48796875 -5.125 102.16796875 C0.815 102.16796875 6.755 102.16796875 12.875 102.16796875 C10.4 99.69296875 10.4 99.69296875 7.875 97.16796875 C11.54603804 97.51759142 13.57794765 97.94497775 16.56559753 100.18774414 C20.56928037 102.58340057 23.68128943 102.68708863 28.20043945 102.6015625 C29.99554118 102.60719157 31.79064109 102.61341592 33.58573914 102.62011719 C35.05477471 102.61522278 35.05477471 102.61522278 36.55348778 102.61022949 C63.3588042 102.56935787 90.09739485 103.99566487 116.85546875 105.41796875 C118.93441713 105.52789789 121.01336738 105.63779158 123.09231949 105.74765015 C134.81747618 106.36839709 146.54200853 107.00035545 158.26629651 107.63727856 C169.23107982 108.23250723 180.19644066 108.81676313 191.16183317 109.4006424 C207.36886734 110.26408049 223.57572344 111.13094501 239.78196526 112.00914001 C241.50554972 112.10247305 243.22914576 112.19559267 244.95275497 112.28846741 C249.53456712 112.53549996 254.11610947 112.7866559 258.69727111 113.04548645 C260.17743593 113.12873556 261.65767045 113.21075276 263.13796449 113.29167175 C265.33072761 113.41222665 267.52313591 113.5379762 269.7155304 113.66503906 C270.97605382 113.73636047 272.23657724 113.80768188 273.53529835 113.88116455 C277.52147322 114.22348605 281.06422321 114.977101 284.875 116.16796875 C283.875 119.16796875 283.875 119.16796875 281.875 120.16796875 C272.24767708 121.5433006 262.57631091 121.25761125 252.875 121.16796875 C253.205 121.82796875 253.535 122.48796875 253.875 123.16796875 C256.4013765 123.45425207 258.84066825 123.63514067 261.375 123.73046875 C268.75575264 124.04872139 268.75575264 124.04872139 269.875 125.16796875 C270 128.16796875 270 128.16796875 269.875 131.16796875 C267.99675109 133.04621766 264.83564724 132.55899272 262.3125 132.73046875 C261.11496094 132.81425781 259.91742188 132.89804688 258.68359375 132.984375 C257.75675781 133.04496094 256.82992188 133.10554687 255.875 133.16796875 C257.1839572 136.28994353 257.1839572 136.28994353 259.875 138.16796875 C259.875 138.82796875 259.875 139.48796875 259.875 140.16796875 C260.535 140.16796875 261.195 140.16796875 261.875 140.16796875 C263.34765625 141.84765625 263.34765625 141.84765625 264.9375 144.04296875 C265.46472656 144.76226562 265.99195313 145.4815625 266.53515625 146.22265625 C269.1202313 149.9759139 269.19524062 152.6045399 268.875 157.16796875 C267.33237187 159.27155256 266.19391683 160.00851034 263.875 161.16796875 C261.6677077 161.23889717 259.45832548 161.252119 257.25 161.23046875 C256.06148438 161.22144531 254.87296875 161.21242187 253.6484375 161.203125 C252.73320312 161.19152344 251.81796875 161.17992187 250.875 161.16796875 C250.875 161.82796875 250.875 162.48796875 250.875 163.16796875 C251.865 163.49796875 252.855 163.82796875 253.875 164.16796875 C254.125 167.48046875 254.125 167.48046875 253.875 171.16796875 C250.65588993 174.59841127 246.65236906 175.006884 242.19921875 175.66796875 C241.44542435 175.7889241 240.69162994 175.90987946 239.91499329 176.03450012 C237.46584087 176.42404422 235.01446016 176.79654365 232.5625 177.16796875 C230.87555552 177.4312735 229.18870674 177.69519209 227.50195312 177.9597168 C193.097173 183.31396304 162.94949701 185.16177065 128.6875 178.16796875 C124.71266643 177.36246637 120.73722915 176.55996696 116.76171875 175.7578125 C115.73030762 175.54938217 114.69889648 175.34095184 113.63623047 175.12620544 C105.70739331 173.52747192 97.77145746 171.96709549 89.83203125 170.421875 C88.67385391 170.19623871 87.51567657 169.97060242 86.32240295 169.73812866 C81.7593606 168.84963825 77.19621646 167.96172809 72.63198853 167.0793457 C69.46508382 166.46696325 66.29890346 165.85094859 63.1328125 165.234375 C62.19617264 165.05451553 61.25953278 164.87465607 60.29450989 164.68934631 C56.60742982 163.96896951 53.10072641 163.24371111 49.53320312 162.04663086 C44.05355171 160.73047593 38.69879754 160.9643785 33.0859375 161.04296875 C31.83285797 161.05054199 30.57977844 161.05811523 29.28872681 161.06591797 C23.96329442 161.09824805 18.6382229 161.1535063 13.31298828 161.20898438 C-57.69267956 161.88412897 -57.69267956 161.88412897 -77.125 152.16796875 C-77.125 150.84796875 -77.125 149.52796875 -77.125 148.16796875 C-72.69111164 145.70774321 -68.53031058 144.40931017 -63.5625 143.60546875 C-62.82563965 143.48252441 -62.0887793 143.35958008 -61.32958984 143.23291016 C-25.07671864 137.44908399 23.75310944 132.68965519 59.875 141.16796875 C59.875 138.19796875 59.875 135.22796875 59.875 132.16796875 C58.555 131.50796875 57.235 130.84796875 55.875 130.16796875 C55.875 127.19796875 55.875 124.22796875 55.875 121.16796875 C58.185 120.17796875 60.495 119.18796875 62.875 118.16796875 C60.015437 116.73818725 57.29782918 116.72143544 54.1171875 116.4140625 C53.45413605 116.34888931 52.79108459 116.28371613 52.10794067 116.21656799 C49.98896983 116.00915088 47.86951447 115.8072473 45.75 115.60546875 C44.31376679 115.46585743 42.87756834 115.32588791 41.44140625 115.18554688 C37.91966492 114.84219591 34.39746842 114.50378794 30.875 114.16796875 C30.83689209 114.77922607 30.79878418 115.3904834 30.75952148 116.02026367 C30.69321533 116.82568604 30.62690918 117.6311084 30.55859375 118.4609375 C30.49986084 119.25781982 30.44112793 120.05470215 30.38061523 120.87573242 C29.61829895 124.331738 27.78805397 125.85970154 25 127.89453125 C16.34140728 133.08332027 6.74760799 134.7719908 -3.125 136.16796875 C-4.22884033 136.32676514 -4.22884033 136.32676514 -5.35498047 136.48876953 C-35.63580731 140.54981135 -71.36018167 141.60917333 -101.125 134.16796875 C-111.025 133.67296875 -111.025 133.67296875 -121.125 133.16796875 C-121.125 96.20796875 -121.125 59.24796875 -121.125 21.16796875 C-109.88426369 17.79574786 -109.88426369 17.79574786 -104.515625 16.88671875 C-103.34773438 16.68433594 -102.17984375 16.48195313 -100.9765625 16.2734375 C-99.78804687 16.07363281 -98.59953125 15.87382812 -97.375 15.66796875 C-89.17669575 14.27155429 -81.03973359 12.74726099 -72.91503906 10.97119141 C-65.42768996 9.38439815 -57.89787987 8.0121432 -50.375 6.60546875 C-47.93857652 6.14854855 -45.50225164 5.6911113 -43.06604004 5.23306274 C-41.50425991 4.93959863 -39.94233177 4.64692102 -38.38024902 4.35507202 C-34.46631235 3.62127585 -30.56662783 2.8463724 -26.671875 2.015625 C-17.87074386 0.25163097 -8.95030924 0.01042467 0 0 Z " fill="#B83123" transform="translate(121.125,12.83203125)"/>
<path d="M0 0 C1.16390259 -0.00137466 2.32780518 -0.00274933 3.52697754 -0.00416565 C5.45179459 0.00122726 5.45179459 0.00122726 7.41549683 0.00672913 C8.77538043 0.00701109 10.13526419 0.00685309 11.49514771 0.00628662 C15.1932717 0.00599899 18.89136344 0.01189017 22.58947992 0.01886058 C26.45188389 0.02509984 30.31428855 0.02569837 34.17669678 0.02688599 C41.49357617 0.02999761 48.81044067 0.03820873 56.12731349 0.04823548 C64.45609899 0.05940185 72.78488519 0.06490839 81.11367631 0.06993091 C98.24928526 0.08039147 115.3848797 0.09798766 132.52047729 0.12025452 C132.66607924 3.84900839 132.75464772 7.57702885 132.83297729 11.30775452 C132.89581909 12.890401 132.89581909 12.890401 132.95993042 14.50502014 C133.08412616 22.37903029 133.08412616 22.37903029 130.13522339 26.25697327 C129.27235718 26.87185608 128.40949097 27.48673889 127.52047729 28.12025452 C126.81149292 28.65650452 126.10250854 29.19275452 125.37203979 29.74525452 C118.18623296 34.1828054 110.59817355 36.82915466 102.52047729 39.12025452 C101.87755737 39.30330139 101.23463745 39.48634827 100.57223511 39.67494202 C82.30074903 44.72544793 63.34980903 46.31856658 44.46578979 46.90931702 C39.45741215 47.07939776 34.49891215 47.56149123 29.52047729 48.12025452 C30.60715698 49.04644592 30.60715698 49.04644592 31.71578979 49.99134827 C46.61629484 63.04419069 46.61629484 63.04419069 47.20797729 71.68275452 C46.84033334 76.53907466 45.03879915 80.71102791 41.52047729 84.12025452 C38.20797729 84.62025452 38.20797729 84.62025452 35.52047729 84.12025452 C35.52047729 86.10025452 35.52047729 88.08025452 35.52047729 90.12025452 C34.59815308 90.19373108 34.59815308 90.19373108 33.65719604 90.26869202 C32.84895386 90.34345764 32.04071167 90.41822327 31.20797729 90.49525452 C30.00721558 90.59966858 30.00721558 90.59966858 28.78219604 90.70619202 C26.24823289 91.01589878 26.24823289 91.01589878 23.52047729 93.12025452 C20.36834424 92.84006491 17.71249191 92.1916515 14.74703979 91.08900452 C6.26815033 88.54328468 -3.07498406 89.8017611 -11.47952271 92.12025452 C-11.47952271 87.83025452 -11.47952271 83.54025452 -11.47952271 79.12025452 C-12.62356567 78.99497375 -13.76760864 78.86969299 -14.94631958 78.74061584 C-19.38364177 78.18375894 -23.66788084 77.24628771 -28.01077271 76.19447327 C-28.80495605 76.0056105 -29.5991394 75.81674774 -30.41738892 75.62216187 C-32.93907102 75.02134297 -35.45927568 74.4145614 -37.97952271 73.80775452 C-39.63828821 73.41220025 -41.29714183 73.01701526 -42.95608521 72.62220764 C-49.36546547 71.09271802 -55.77340016 69.56076972 -62.15921021 67.93519592 C-62.89409668 67.74850845 -63.62898315 67.56182098 -64.38613892 67.36947632 C-66.38237675 66.86005145 -68.37728724 66.34543329 -70.37210083 65.83045959 C-73.4356961 65.00885147 -73.4356961 65.00885147 -76.47952271 65.12025452 C-77.46952271 67.76025452 -78.45952271 70.40025452 -79.47952271 73.12025452 C-77.9964563 73.41416077 -77.9964563 73.41416077 -76.48342896 73.71400452 C-65.23309586 75.9930363 -54.07232757 78.60807643 -42.91702271 81.30775452 C-42.16994049 81.48773987 -41.42285828 81.66772522 -40.65313721 81.85316467 C-38.50990799 82.37026162 -36.36760787 82.89102532 -34.22561646 83.41322327 C-32.34894287 83.86991394 -32.34894287 83.86991394 -30.43435669 84.33583069 C-27.47952271 85.12025452 -27.47952271 85.12025452 -25.47952271 86.12025452 C-25.47952271 87.11025452 -25.47952271 88.10025452 -25.47952271 89.12025452 C-36.81802353 86.94469567 -48.10183242 84.58031057 -59.35452271 81.99525452 C-60.46488892 81.7417926 -61.57525513 81.48833069 -62.7192688 81.22718811 C-67.72625865 80.06606923 -72.64391218 78.88938032 -77.47952271 77.12025452 C-77.08120239 77.65134827 -76.68288208 78.18244202 -76.27249146 78.72962952 C-73.67483521 82.19317118 -71.07717896 85.65671285 -68.47952271 89.12025452 C-73.47952271 90.78692118 -78.47952271 92.45358785 -83.47952271 94.12025452 C-90.47952271 87.12025452 -90.47952271 87.12025452 -90.79202271 84.62025452 C-91.01889771 83.79525452 -91.24577271 82.97025452 -91.47952271 82.12025452 C-93.1402512 81.43893001 -94.8072897 80.77283325 -96.47952271 80.12025452 C-99.12501346 76.27226796 -98.71860854 72.07371781 -98.13577271 67.61634827 C-96.80095616 62.5392782 -93.66558884 59.58856911 -89.39749146 56.72181702 C-87.13293117 55.41305188 -84.8364633 54.2531705 -82.47952271 53.12025452 C-81.49919067 52.5981842 -81.49919067 52.5981842 -80.49905396 52.06556702 C-57.81266271 40.74431181 -28.14229512 40.8928995 -3.47952271 41.12025452 C-3.47952271 40.46025452 -3.47952271 39.80025452 -3.47952271 39.12025452 C-4.01577271 38.89337952 -4.55202271 38.66650452 -5.10452271 38.43275452 C-11.54650595 34.87271114 -16.3839488 29.82026379 -19.47952271 23.12025452 C-20.46154376 18.18039101 -20.08763059 14.4378216 -17.97952271 9.87025452 C-12.81610647 4.19049666 -7.79437086 -0.00707293 0 0 Z " fill="#AF2E1F" transform="translate(667.4795227050781,-0.1202545166015625)"/>
<path d="M0 0 C0.99 0.495 0.99 0.495 2 1 C2.495 2.485 2.495 2.485 3 4 C8.7651069 6.88255345 14.86634433 7.23693179 21.19140625 7.16088867 C38.95093131 6.95250344 55.39112481 11.46227194 72.45800781 15.84863281 C79.06973182 17.53899297 85.72032521 19.05139686 92.375 20.5625 C94.46622753 21.04261304 96.55738313 21.52303961 98.6484375 22.00390625 C100.09891696 22.33611818 101.54941965 22.66822888 103 23 C103 21.02 103 19.04 103 17 C105.41474617 16.46839543 107.83108107 15.94945234 110.25 15.4375 C110.93191406 15.28603516 111.61382813 15.13457031 112.31640625 14.97851562 C119.08714995 13.56520505 119.08714995 13.56520505 122 15 C123.59769636 19.79308907 123.74824109 23.47234111 121.5 28.0625 C107.93857076 43.99717935 82.78636889 47.24771137 63 49 C50.01617647 49.9199875 37.00398885 50.45535591 24 51 C24.75055664 51.66241699 25.50111328 52.32483398 26.27441406 53.00732422 C27.27171424 53.89785462 28.26877168 54.78865692 29.265625 55.6796875 C30.24305664 56.54835449 31.22048828 57.41702148 32.22753906 58.31201172 C36.53138984 62.48473073 40.30226113 67.08690776 41.37890625 73.125 C41.21501247 78.06109504 38.74860379 81.56138739 35.4140625 85.046875 C25.03226087 93.44639088 11.77292742 97.49705169 -1.40673828 97.34057617 C-2.88659462 97.34123329 -2.88659462 97.34123329 -4.39634705 97.34190369 C-7.62121141 97.33983223 -10.84554021 97.31657917 -14.0703125 97.29296875 C-16.3204622 97.28736695 -18.57061558 97.28309961 -20.82077026 97.28010559 C-26.71608753 97.26870285 -32.61117976 97.23927519 -38.50640869 97.20599365 C-44.53288734 97.17519393 -50.55940268 97.16157915 -56.5859375 97.14648438 C-68.39072336 97.11440097 -80.1953429 97.06326024 -92 97 C-90.02 96.01 -90.02 96.01 -88 95 C-88.70125 94.505 -89.4025 94.01 -90.125 93.5 C-95.99163025 88.39858239 -100.50279905 82.47480857 -101.375 74.625 C-100.71597623 68.25443692 -97.94743862 64.52418179 -93.25 60.4375 C-83.84506442 53.54261312 -71.28278902 50.2565578 -60 48 C-58.74445313 47.74476563 -57.48890625 47.48953125 -56.1953125 47.2265625 C-40.311947 44.26778921 -24.10437613 43.80284055 -8 43 C-8.78930908 42.21302734 -9.57861816 41.42605469 -10.3918457 40.61523438 C-20.92118711 30.05731009 -20.92118711 30.05731009 -21.375 21.5625 C-21.24725242 16.07847874 -18.92211019 13.05940378 -15.25 9.125 C-11.80221427 7.40110713 -8.82490982 7.80875451 -5 8 C-5 6.02 -5 4.04 -5 2 C-2.625 0.9375 -2.625 0.9375 0 0 Z " fill="#AF2D1E" transform="translate(509,103)"/>
<path d="M0 0 C2.05462133 3.12195709 2.48991497 6.62291579 3.26171875 10.234375 C4.39674722 13.36159037 5.30100526 14.24880854 8.203125 15.828125 C18.1484479 18.48618427 28.96096904 18.39131027 39.203125 18.828125 C39.203125 20.808125 39.203125 22.788125 39.203125 24.828125 C46.15380539 27.61892849 52.74820938 28.46231696 60.203125 28.828125 C60.203125 29.158125 60.203125 29.488125 60.203125 29.828125 C53.933125 30.158125 47.663125 30.488125 41.203125 30.828125 C41.04135977 34.74643837 40.92231315 38.65810409 40.828125 42.578125 C40.77785156 43.68929687 40.72757812 44.80046875 40.67578125 45.9453125 C40.62030768 49.01485027 40.63638731 51.80971779 41.203125 54.828125 C44.59319062 58.06917675 47.57083726 59.28314997 52.203125 59.828125 C52.203125 60.818125 52.203125 61.808125 52.203125 62.828125 C53.853125 64.148125 55.503125 65.468125 57.203125 66.828125 C50.603125 66.828125 44.003125 66.828125 37.203125 66.828125 C36.873125 65.838125 36.543125 64.848125 36.203125 63.828125 C14.753125 63.828125 -6.696875 63.828125 -28.796875 63.828125 C-27.4833989 67.90538573 -27.4833989 67.90538573 -25.796875 71.828125 C-30.12997828 71.94509 -34.4626708 72.0156339 -38.796875 72.078125 C-40.01761719 72.11164063 -41.23835938 72.14515625 -42.49609375 72.1796875 C-50.93113248 72.27087711 -56.13183491 71.46616 -62.890625 66.1953125 C-66.796875 62.05034722 -66.796875 62.05034722 -66.796875 59.828125 C-65.806875 59.333125 -65.806875 59.333125 -64.796875 58.828125 C-64.82305908 57.73346924 -64.84924316 56.63881348 -64.8762207 55.51098633 C-64.96690719 51.43909242 -65.02419049 47.36728724 -65.0715332 43.29467773 C-65.09663561 41.53410824 -65.13072528 39.77364253 -65.17407227 38.01342773 C-65.23491615 35.47874321 -65.26312613 32.94543925 -65.28515625 30.41015625 C-65.31096268 29.62663284 -65.3367691 28.84310944 -65.36335754 28.0358429 C-65.36552441 23.78772291 -65.1931889 22.30923426 -62.38696289 18.90258789 C-61.53223389 18.21801514 -60.67750488 17.53344238 -59.796875 16.828125 C-59.16007812 16.24289063 -58.52328125 15.65765625 -57.8671875 15.0546875 C-47.67229251 6.66130006 -35.71422498 2.04303412 -22.796875 -0.171875 C-21.74306641 -0.36716797 -21.74306641 -0.36716797 -20.66796875 -0.56640625 C-4.70172208 -3.06634049 -4.70172208 -3.06634049 0 0 Z " fill="#C5382A" transform="translate(78.796875,49.171875)"/>
<path d="M0 0 C0.90363281 -0.020625 1.80726563 -0.04125 2.73828125 -0.0625 C8.6125352 -0.09630866 14.55569261 0.23111058 19.75 3.25 C20.99707031 5.35839844 20.99707031 5.35839844 21.75 7.25 C19.64611431 7.30402274 17.54183286 7.34280256 15.4375 7.375 C13.67986328 7.40980469 13.67986328 7.40980469 11.88671875 7.4453125 C8.75 7.25 8.75 7.25 5.75 5.25 C2.54620876 5.00753217 2.54620876 5.00753217 -0.9375 5.125 C-2.11699219 5.14304687 -3.29648437 5.16109375 -4.51171875 5.1796875 C-5.86716797 5.21449219 -5.86716797 5.21449219 -7.25 5.25 C-7.25 6.24 -7.25 7.23 -7.25 8.25 C-6.30253906 8.21519531 -6.30253906 8.21519531 -5.3359375 8.1796875 C16.62602432 7.73665081 16.62602432 7.73665081 23.75 14.25 C24.245 15.24 24.245 15.24 24.75 16.25 C25.74 16.58 26.73 16.91 27.75 17.25 C28.08 11.97 28.41 6.69 28.75 1.25 C33.37 1.25 37.99 1.25 42.75 1.25 C42.75 7.52 42.75 13.79 42.75 20.25 C44.30332031 20.44335938 45.85664062 20.63671875 47.45703125 20.8359375 C49.49224085 21.09854519 51.52739425 21.36158868 53.5625 21.625 C54.58666016 21.75132813 55.61082031 21.87765625 56.66601562 22.0078125 C57.64892578 22.13671875 58.63183594 22.265625 59.64453125 22.3984375 C60.55050049 22.51364746 61.45646973 22.62885742 62.38989258 22.74755859 C64.75 23.25 64.75 23.25 67.75 25.25 C70.27566006 25.44538667 72.66542102 25.52901721 75.1875 25.5 C76.50621094 25.50515625 77.82492187 25.5103125 79.18359375 25.515625 C82.3864784 25.27707499 84.09858447 24.9588407 86.75 23.25 C86.75 22.26 86.75 21.27 86.75 20.25 C85.574375 20.58 84.39875 20.91 83.1875 21.25 C74.07244465 23.23716847 63.89985073 23.93822242 55.49609375 19.37890625 C51.24714655 16.63182406 51.24714655 16.63182406 49.75 14.25 C49.67768926 10.20059883 50.02432285 8.09272185 52.6875 5 C61.62271529 -0.10583731 72.37758908 -1.62543786 82.421875 0.9296875 C84.625 1.75 84.625 1.75 87.75 3.25 C87.75 2.59 87.75 1.93 87.75 1.25 C92.04 1.25 96.33 1.25 100.75 1.25 C100.91176523 5.16831337 101.03081185 9.07997909 101.125 13 C101.17527344 14.11117187 101.22554687 15.22234375 101.27734375 16.3671875 C101.33279023 19.43522584 101.31215947 22.23236232 100.75 25.25 C95.85240255 29.98916603 89.43553534 31.34798774 82.75 31.375 C81.76 31.33375 80.77 31.2925 79.75 31.25 C79.75 33.23 79.75 35.21 79.75 37.25 C72.80954231 36.57608418 66.11919386 35.08570228 59.32870483 33.52496338 C57.269579 33.05265507 55.20882289 32.58804352 53.14770508 32.12451172 C46.75905288 30.67992044 40.39752072 29.18598914 34.0703125 27.48828125 C22.12188503 24.31905661 11.00233232 22.56110305 -1.3996582 22.56298828 C-7.85467874 22.53728131 -14.42028404 22.33307177 -20.25 19.25 C-20.91 17.93 -21.57 16.61 -22.25 15.25 C-17.63 15.25 -13.01 15.25 -8.25 15.25 C-8.25 15.91 -8.25 16.57 -8.25 17.25 C-2.64 17.25 2.97 17.25 8.75 17.25 C8.42 16.59 8.09 15.93 7.75 15.25 C5.47408415 14.82215159 3.17622025 14.50929242 0.875 14.25 C-0.49241425 14.08520402 -1.85960226 13.91852047 -3.2265625 13.75 C-3.9062207 13.6675 -4.58587891 13.585 -5.28613281 13.5 C-8.03652016 13.1498761 -10.76750318 12.71884664 -13.5 12.25 C-14.77617188 12.0334375 -14.77617188 12.0334375 -16.078125 11.8125 C-18.25 11.25 -18.25 11.25 -21.25 9.25 C-21.4375 6.625 -21.4375 6.625 -21.25 4.25 C-14.05075867 0.39924301 -8.00581365 0.0449134 0 0 Z " fill="#C94337" transform="translate(532.25,88.75)"/>
<path d="M0 0 C0 2.97 0 5.94 0 9 C-4.29 9.66 -8.58 10.32 -13 11 C-13 12.32 -13 13.64 -13 15 C-19.13882641 15.76692298 -25.12544804 16.1587216 -31.30859375 16.16796875 C-32.61634514 16.17425293 -32.61634514 16.17425293 -33.95051575 16.18066406 C-36.77955666 16.19042569 -39.60844501 16.19045078 -42.4375 16.1875 C-43.40997681 16.18722809 -44.38245361 16.18695618 -45.38439941 16.18667603 C-68.22314532 16.15743876 -90.92912447 15.24143271 -113.625 12.5625 C-114.5727832 12.45252686 -115.52056641 12.34255371 -116.49707031 12.22924805 C-122.05900198 11.49862081 -126.82209369 10.16651325 -132 8 C-131.67 7.01 -131.34 6.02 -131 5 C-93.25148941 -8.94649406 -39.38275071 -4.21452098 0 0 Z " fill="#C63729" transform="translate(181,156)"/>
<path d="M0 0 C1.84827829 0.0972568 3.69657606 0.19414425 5.54489136 0.29069519 C10.51613992 0.5514319 15.48709997 0.81732853 20.45801926 1.08425975 C25.69003711 1.36434762 30.9223032 1.63972209 36.15454102 1.91566467 C44.93683489 2.37948351 53.7189616 2.84636059 62.50097656 3.31542969 C74.84096552 3.97453185 87.18125203 4.62792338 99.52160072 5.28025043 C109.15899313 5.7899231 118.79629662 6.30127361 128.43359375 6.81274414 C129.96837812 6.89415748 129.96837812 6.89415748 131.53416824 6.97721553 C137.44376123 7.29076293 143.3533085 7.60514924 149.26279068 7.92077827 C151.0427837 8.01575046 152.82278953 8.11048274 154.60280991 8.2049408 C159.32710263 8.45575166 164.05112977 8.71063167 168.77473068 8.9741714 C170.27723177 9.05786008 171.77978979 9.14053171 173.28239822 9.22227025 C175.47896476 9.3427556 177.67516103 9.4685932 179.87133789 9.59596252 C181.12684952 9.66714074 182.38236115 9.73831896 183.67591858 9.81165409 C187.65398091 10.15461962 191.1927849 10.90936637 194.99609375 12.09790039 C193.99609375 15.09790039 193.99609375 15.09790039 191.99609375 16.09790039 C182.36877083 17.47323224 172.69740466 17.18754289 162.99609375 17.09790039 C163.32609375 17.75790039 163.65609375 18.41790039 163.99609375 19.09790039 C166.52247025 19.38418371 168.961762 19.56507232 171.49609375 19.66040039 C178.87684639 19.97865303 178.87684639 19.97865303 179.99609375 21.09790039 C180.12109375 24.09790039 180.12109375 24.09790039 179.99609375 27.09790039 C178.99609375 28.09790039 178.99609375 28.09790039 176.34399414 28.1796875 C175.18891357 28.16172119 174.03383301 28.14375488 172.84375 28.12524414 C171.59271484 28.11299805 170.34167969 28.10075195 169.05273438 28.08813477 C166.39382502 28.05302936 163.73496478 28.01397824 161.07617188 27.97094727 C159.82384766 27.95999023 158.57152344 27.9490332 157.28125 27.93774414 C155.54693726 27.91248657 155.54693726 27.91248657 153.77758789 27.88671875 C150.85478774 27.80484284 150.85478774 27.80484284 148.99609375 30.09790039 C146.06958008 30.50854492 146.06958008 30.50854492 142.328125 30.73071289 C141.32032234 30.79305618 141.32032234 30.79305618 140.29216003 30.85665894 C138.86080537 30.94328125 137.42916935 31.02535395 135.99731445 31.10327148 C133.86138299 31.22001509 131.72672827 31.35095301 129.59179688 31.48461914 C120.382856 32.03724382 111.22132807 32.20338905 101.99609375 32.09790039 C102.32609375 31.43790039 102.65609375 30.77790039 102.99609375 30.09790039 C106.21663806 29.7668164 109.39189632 29.63234325 112.625 29.53149414 C114.41942774 29.45197229 116.20932186 29.28158722 117.99609375 29.09790039 C118.32609375 28.43790039 118.65609375 27.77790039 118.99609375 27.09790039 C111.73609375 27.09790039 104.47609375 27.09790039 96.99609375 27.09790039 C96.99609375 26.76790039 96.99609375 26.43790039 96.99609375 26.09790039 C99.63609375 25.76790039 102.27609375 25.43790039 104.99609375 25.09790039 C104.31619385 25.04255127 103.63629395 24.98720215 102.93579102 24.93017578 C99.80994666 24.67493435 96.68427095 24.4176803 93.55859375 24.16040039 C92.48931641 24.07338867 91.42003906 23.98637695 90.31835938 23.89672852 C87.21003003 23.64007747 84.10306202 23.37047709 80.99609375 23.09790039 C79.63073486 22.98937744 79.63073486 22.98937744 78.23779297 22.87866211 C76.14948161 22.69039548 74.07031687 22.40463659 71.99609375 22.09790039 C71.50109375 21.10790039 71.50109375 21.10790039 70.99609375 20.09790039 C71.90931396 20.17516357 72.82253418 20.25242676 73.76342773 20.33203125 C87.53820261 21.37586486 101.2605937 20.99223307 115.05859375 20.66040039 C117.48631449 20.60704211 119.91404893 20.55430327 122.34179688 20.50219727 C128.22673929 20.37456311 134.1114673 20.23931992 139.99609375 20.09790039 C139.06339912 20.08577011 139.06339912 20.08577011 138.11186218 20.07339478 C131.53964483 19.98619088 124.96769002 19.88666393 118.39575195 19.78051758 C115.95504221 19.74263481 113.51428431 19.70771763 111.07348633 19.67602539 C97.27155056 19.49468195 83.69171527 19.00199873 69.98831177 17.3270874 C64.8825336 16.73971291 59.74761037 16.44485804 54.62109375 16.09790039 C43.05920729 15.28060174 31.52807034 14.25975012 19.99609375 13.09790039 C19.99609375 12.43790039 19.99609375 11.77790039 19.99609375 11.09790039 C30.31691227 10.71807064 40.49994862 11.34786937 50.78515625 12.19165039 C51.79418629 12.27405472 51.79418629 12.27405472 52.82360077 12.35812378 C59.17408433 12.87901519 65.52298928 13.4182824 71.87158203 13.96166992 C96.39090809 16.05282839 120.35211635 16.34168684 144.93359375 15.09790039 C157.29867972 14.48031963 169.61292588 13.92415235 181.99609375 14.09790039 C181.99609375 13.43790039 181.99609375 12.77790039 181.99609375 12.09790039 C180.87364258 12.10660156 179.75119141 12.11530273 178.59472656 12.12426758 C169.31974299 12.17446323 160.09908372 12.02302395 150.83679199 11.47219849 C148.60140835 11.33929842 146.36570629 11.2131664 144.12988281 11.08789062 C137.2065874 10.69736977 130.28425415 10.29046077 123.36181641 9.8850708 C114.2403759 9.35094928 105.11881743 8.81892883 95.99702835 8.29079056 C94.49696834 8.2038964 92.99691492 8.11688832 91.49686813 8.02976608 C65.85490702 6.54077777 40.20782601 5.25152629 14.54684544 4.13745689 C12.55678873 4.05089453 10.56677733 3.96329261 8.57676697 3.87567139 C6.17303229 3.77019593 3.76919908 3.66692888 1.36524963 3.56646729 C-4.60842878 3.30455325 -10.53831302 2.89233899 -16.48985291 2.31904602 C-20.09057033 2.00231331 -23.68442184 1.87227249 -27.296875 1.78149414 C-28.37223259 1.75032249 -28.37223259 1.75032249 -29.46931458 1.71852112 C-31.70993577 1.65428978 -33.95065085 1.59474371 -36.19140625 1.53540039 C-37.73112864 1.49209418 -39.27084231 1.44847658 -40.81054688 1.40454102 C-44.54157309 1.29874303 -48.27269914 1.19713971 -52.00390625 1.09790039 C-52.00390625 0.76790039 -52.00390625 0.43790039 -52.00390625 0.09790039 C-49.5042216 -0.07534508 -47.00436085 -0.24063919 -44.50390625 -0.40209961 C-43.82714844 -0.44979492 -43.15039062 -0.49749023 -42.453125 -0.54663086 C-28.28945359 -1.43983536 -14.14929693 -0.76856126 0 0 Z " fill="#B12F1F" transform="translate(211.00390625,116.902099609375)"/>
<path d="M0 0 C3.6063619 3.51145764 4.31255464 6.11374618 5 11 C4.17724075 11.03981995 4.17724075 11.03981995 3.33786011 11.08044434 C-17.11508391 12.17370441 -37.07969028 15.57977951 -57.23327637 19.04705811 C-61.66322793 19.80660412 -66.09541066 20.55290171 -70.52734375 21.30078125 C-83.36287144 23.4711322 -96.197398 25.64166315 -109 28 C-109 23.71 -109 19.42 -109 15 C-97.31134761 11.04094032 -85.48810686 8.80607902 -73.375 6.5625 C-71.263585 6.16721179 -69.15225733 5.77145686 -67.04101562 5.37524414 C-63.90653028 4.78753948 -60.77187866 4.20083448 -57.63653564 3.61772156 C-51.89839714 2.54990135 -46.16809624 1.45180638 -40.4453125 0.3046875 C-9.16389939 -5.90562405 -9.16389939 -5.90562405 0 0 Z " fill="#C63729" transform="translate(109,22)"/>
<path d="M0 0 C7.15336063 -0.02297653 14.30659279 -0.04288407 21.45996094 -0.05493164 C23.89258254 -0.05995504 26.32520114 -0.06677491 28.7578125 -0.07543945 C32.25782007 -0.08759226 35.75778765 -0.09324832 39.2578125 -0.09765625 C40.34240753 -0.10281754 41.42700256 -0.10797882 42.54446411 -0.11329651 C43.56506927 -0.11337204 44.58567444 -0.11344757 45.63720703 -0.11352539 C46.52989288 -0.115746 47.42257874 -0.11796661 48.34231567 -0.12025452 C51 0 51 0 57 1 C57 8.59 57 16.18 57 24 C51.48240698 25.83919767 45.52917698 25.69648405 39.75 26.0625 C39.06058319 26.10735535 38.37116638 26.15221069 37.66085815 26.19842529 C25.08578154 27.00628202 12.60532098 27.16477544 0 27 C0 18.09 0 9.18 0 0 Z " fill="#C63729" transform="translate(61,122)"/>
<path d="M0 0 C0.79504944 -0.00067474 1.59009888 -0.00134949 2.40924072 -0.00204468 C54.34333619 0.06726642 54.34333619 0.06726642 72.890625 15.7421875 C74.125 17.25 74.125 17.25 74.125 20.25 C72.32095703 20.15912109 72.32095703 20.15912109 70.48046875 20.06640625 C65.74611557 19.83134396 61.01114594 19.61131443 56.27587891 19.39550781 C54.2415556 19.30156262 52.20736116 19.20476321 50.17333984 19.10449219 C27.82892086 18.01452053 5.48936532 18.14914079 -16.875 18.25 C-17.18953125 17.56292969 -17.5040625 16.87585938 -17.828125 16.16796875 C-18.25609375 15.26691406 -18.6840625 14.36585937 -19.125 13.4375 C-19.54265625 12.54417969 -19.9603125 11.65085937 -20.390625 10.73046875 C-22.91131805 6.51825799 -26.04429799 4.97712856 -30.625 3.5625 C-31.42421875 3.31113281 -32.2234375 3.05976563 -33.046875 2.80078125 C-33.65015625 2.61902344 -34.2534375 2.43726563 -34.875 2.25 C-34.875 1.92 -34.875 1.59 -34.875 1.25 C-23.24510028 0.45985039 -11.65717921 0.0090437 0 0 Z " fill="#C63729" transform="translate(135.875,14.75)"/>
<path d="M0 0 C8 0 8 0 10.1015625 1.64453125 C10.60429687 2.35996094 11.10703125 3.07539062 11.625 3.8125 C15.3034977 8.51234131 18.31117937 10.56928197 24.31640625 11.53125 C30.51898243 12.25247979 36.76357723 12.36164372 43 12.5625 C44.25167969 12.60568359 45.50335938 12.64886719 46.79296875 12.69335938 C49.86187069 12.79877967 52.93092225 12.89982871 56 13 C56 21.25 56 29.5 56 38 C47.09757134 38.17731486 38.77518113 37.64326023 30 36.1875 C28.30206299 35.91510498 28.30206299 35.91510498 26.56982422 35.63720703 C6.79898834 32.39949417 6.79898834 32.39949417 0 29 C0 19.43 0 9.86 0 0 Z " fill="#C63729" transform="translate(0,110)"/>
<path d="M0 0 C16.54793567 -1.64216155 16.54793567 -1.64216155 21.9140625 2.68359375 C25.25727239 5.86700592 28.15909081 9.37000682 31 13 C31.94796978 14.14642622 32.89957887 15.28985667 33.85546875 16.4296875 C34.56316406 17.27789062 35.27085938 18.12609375 36 19 C39.19420247 16.67694366 41.81133583 14.16783193 44.375 11.1875 C44.98472656 10.50042969 45.59445313 9.81335938 46.22265625 9.10546875 C48.01407991 7.06643268 48.01407991 7.06643268 49.37109375 4.92578125 C51.15337493 2.54457631 52.32260879 1.36371795 55 0 C60.99977937 -0.86014787 66.9614917 -0.30853692 73 0 C73 9.9 73 19.8 73 30 C68.71 30 64.42 30 60 30 C59.505 19.605 59.505 19.605 59 9 C54.48227087 13.84606728 54.48227087 13.84606728 49.96533203 18.69287109 C49.40185059 19.29695801 48.83836914 19.90104492 48.2578125 20.5234375 C47.6817627 21.14138184 47.10571289 21.75932617 46.51220703 22.39599609 C43.0889453 26.02706318 41.50297967 26.46585227 36.4375 26.75 C32.09813694 26.70558482 29.79319267 26.59118533 26.28515625 23.9765625 C24.03071703 21.40997016 22.03772551 18.74012332 20 16 C18.02 14.02 16.04 12.04 14 10 C13.67 16.27 13.34 22.54 13 29 C8.71 29 4.42 29 0 29 C0 19.43 0 9.86 0 0 Z " fill="#FDF1F1" transform="translate(37,81)"/>
<path d="M0 0 C0 -0.66 0 -1.32 0 -2 C4.29 -2 8.58 -2 13 -2 C13.16176523 1.91831337 13.28081185 5.82997909 13.375 9.75 C13.42527344 10.86117187 13.47554687 11.97234375 13.52734375 13.1171875 C13.67510914 21.29353904 13.67510914 21.29353904 10.4765625 24.640625 C2.83239113 27.62958189 -3.72869653 28.34051342 -11.875 28.3125 C-12.80441406 28.32861328 -13.73382812 28.34472656 -14.69140625 28.36132812 C-22.35937502 28.36667538 -29.52452976 27.31698016 -36 23 C-36 22.34 -36 21.68 -36 21 C-33.70839681 20.97307516 -31.41670454 20.95363876 -29.125 20.9375 C-27.84882812 20.92589844 -26.57265625 20.91429688 -25.2578125 20.90234375 C-22 21 -22 21 -20 22 C-17.52821126 22.12445775 -15.09688831 22.1851592 -12.625 22.1875 C-11.95210937 22.19974609 -11.27921875 22.21199219 -10.5859375 22.22460938 C-6.88138157 22.23554802 -4.14509357 22.04027865 -1 20 C-1 19.01 -1 18.02 -1 17 C-2.175625 17.33 -3.35125 17.66 -4.5625 18 C-13.67755535 19.98716847 -23.85014927 20.68822242 -32.25390625 16.12890625 C-36.50285345 13.38182406 -36.50285345 13.38182406 -38 11 C-38.07231074 6.95059883 -37.72567715 4.84272185 -35.0625 1.75 C-24.36719141 -4.36160491 -11.18292945 -5.36780613 0 0 Z " fill="#FBEEEE" transform="translate(620,92)"/>
<path d="M0 0 C1.74621837 0.40644883 3.50450831 0.76320717 5.26953125 1.078125 C6.82546997 1.36055054 6.82546997 1.36055054 8.4128418 1.64868164 C9.534729 1.8471167 10.65661621 2.04555176 11.8125 2.25 C14.25271133 2.69081344 16.69281088 3.13224598 19.1328125 3.57421875 C20.41575195 3.80544434 21.69869141 4.03666992 23.02050781 4.27490234 C27.03579271 5.0028072 31.04566564 5.75797779 35.0546875 6.51953125 C48.35863749 9.04466991 61.66060116 11.52138389 75.03320312 13.66333008 C79.07259826 14.31579957 83.08448755 14.98039789 87.0703125 15.91015625 C106.73344149 20.47556957 126.14105793 17.37732585 145.85839844 14.58203125 C152.21936629 13.6827676 158.58859583 12.84645771 164.95904541 12.01745605 C166.95232261 11.75624786 168.94468282 11.48807199 170.93701172 11.21972656 C172.15404785 11.05956055 173.37108398 10.89939453 174.625 10.734375 C175.68976563 10.59225586 176.75453125 10.45013672 177.8515625 10.30371094 C181.25190074 9.97570064 184.58596769 9.94947748 188 10 C188 11.65 188 13.3 188 15 C172.70900577 18.80924061 157.2262244 21.02216689 141.625 23.125 C140.3656665 23.29572021 139.10633301 23.46644043 137.80883789 23.64233398 C127.16044655 25.05113334 116.56197474 26.17784189 105.8125 26.1875 C104.71905273 26.20586914 104.71905273 26.20586914 103.60351562 26.22460938 C99.08655717 26.2365907 95.02565213 25.70242477 90.64233398 24.63549805 C87.41287722 23.85879326 84.16741692 23.18915905 80.9140625 22.51953125 C80.26214935 22.38499039 79.61023621 22.25044952 78.93856812 22.11183167 C76.83424889 21.67772671 74.72965028 21.2449969 72.625 20.8125 C71.89056671 20.66137756 71.15613342 20.51025513 70.39944458 20.35455322 C51.98272383 16.5666802 33.54328286 12.89335169 15.10253906 9.22460938 C12.69076545 8.74466073 10.27905879 8.26437548 7.86743164 7.78369141 C5.73138462 7.35796526 3.59516564 6.93310058 1.45874023 6.50927734 C0.52489502 6.32316895 -0.4089502 6.13706055 -1.37109375 5.9453125 C-2.17474365 5.78562988 -2.97839355 5.62594727 -3.80639648 5.46142578 C-5.88607247 5.02396472 -7.94226254 4.5303659 -10 4 C-10 2.35 -10 0.7 -10 -1 C-5.81249305 -2.19643056 -3.94562343 -1.62195653 0 0 Z " fill="#C63628" transform="translate(183,169)"/>
<path d="M0 0 C4.29 0 8.58 0 13 0 C13 10.23 13 20.46 13 31 C9.04 31 5.08 31 1 31 C1 30.34 1 29.68 1 29 C-0.134375 29.495 -1.26875 29.99 -2.4375 30.5 C-12.16099804 33.71552388 -23.8046494 33.40241552 -33.1171875 29.16796875 C-35.10050029 27.93765646 -36.53576832 26.82015261 -38 25 C-38.4375 21.5625 -38.4375 21.5625 -38 18 C-33.66302229 12.78192073 -27.71169951 10.48641403 -21.02294922 9.79589844 C-14.06683801 9.40899625 -7.57851983 9.45018611 -1 12 C-0.67 8.04 -0.34 4.08 0 0 Z " fill="#FCF0F0" transform="translate(214,79)"/>
<path d="M0 0 C5.37158939 -0.06926118 10.7415994 -0.12887515 16.11328125 -0.16479492 C17.93657715 -0.17978489 19.7598376 -0.20018384 21.58300781 -0.22631836 C44.04402059 -0.5399853 44.04402059 -0.5399853 51.625 4.875 C53.36581147 7.565345 53.62895177 8.85524113 53 12 C50.31819686 16.14460486 46.47666588 17.07941701 41.95947266 18.38476562 C36.61910254 19.49495641 31.30522218 19.31062713 25.875 19.1875 C24.72773438 19.17396484 23.58046875 19.16042969 22.3984375 19.14648438 C19.59845042 19.11148454 16.79948783 19.06238859 14 19 C14 22.3 14 25.6 14 29 C9.38 29 4.76 29 0 29 C0 19.43 0 9.86 0 0 Z " fill="#FDF3F2" transform="translate(239,81)"/>
<path d="M0 0 C0.69420044 0.14424408 1.38840088 0.28848816 2.1036377 0.43710327 C4.31394918 0.90427909 6.51641274 1.39899838 8.71875 1.90234375 C9.41790527 2.06026398 10.11706055 2.2181842 10.83740234 2.38088989 C15.19585476 3.37221446 19.54256984 4.40887972 23.88641357 5.46218872 C27.97663028 6.45330069 32.07019807 7.43033093 36.1640625 8.40625 C37.01400787 8.6089299 37.86395325 8.8116098 38.73965454 9.02043152 C48.83857424 11.41939528 58.96486238 13.69635204 69.09375 15.96484375 C69.98457275 16.16442688 70.87539551 16.36401001 71.79321289 16.56964111 C76.76772589 17.6835396 81.74291645 18.79435981 86.71875 19.90234375 C86.71875 20.56234375 86.71875 21.22234375 86.71875 21.90234375 C82.20798826 25.37142534 78.08768871 27.9425862 72.26953125 27.84375 C68.01683477 27.05720112 63.89278409 26.02402235 59.71875 24.90234375 C57.77441158 24.41407336 55.82903161 23.92993803 53.8828125 23.44921875 C50.75789102 22.67527344 47.63458564 21.89681737 44.51513672 21.10107422 C37.74345343 19.37457968 30.9863904 17.91025441 24.12109375 16.60546875 C20.60615048 15.87907404 17.17829814 14.98222451 13.71875 14.02734375 C3.4886599 11.21052065 -6.90257604 9.09359252 -17.28125 6.90234375 C-17.28125 5.91234375 -17.28125 4.92234375 -17.28125 3.90234375 C-11.44615963 -0.40384073 -7.13186509 -1.52022778 0 0 Z " fill="#C73729" transform="translate(692.28125,2.09765625)"/>
<path d="M0 0 C2.30594108 0.53796836 4.6119342 1.07571371 6.91796875 1.61328125 C8.82521729 2.05921631 8.82521729 2.05921631 10.77099609 2.51416016 C18.08799482 4.22236574 25.41088999 5.90519084 32.73266602 7.59277344 C35.25740097 8.17479808 37.78204269 8.75722506 40.30664062 9.33984375 C41.50907913 9.61714828 41.50907913 9.61714828 42.73580933 9.90005493 C44.30240289 10.26191683 45.86875477 10.62482689 47.43484497 10.98886108 C50.9585406 11.8067233 54.48340728 12.6099985 58.02099609 13.36572266 C59.20387207 13.62272949 60.38674805 13.87973633 61.60546875 14.14453125 C63.14497192 14.46901245 63.14497192 14.46901245 64.71557617 14.80004883 C65.46943604 15.03103271 66.2232959 15.2620166 67 15.5 C67.495 16.49 67.495 16.49 68 17.5 C64.25 22.375 64.25 22.375 62 23.5 C56.74711157 23.77919462 51.98944033 23.03968595 46.90234375 21.84765625 C46.12681152 21.67218262 45.3512793 21.49670898 44.55224609 21.31591797 C42.01221288 20.73896937 39.47487713 20.15101035 36.9375 19.5625 C35.16555476 19.15699498 33.39349902 18.75197259 31.62133789 18.34741211 C26.07780426 17.07813806 20.53841802 15.7913913 15 14.5 C14.09121094 14.28827148 13.18242188 14.07654297 12.24609375 13.85839844 C6.14121465 12.43494704 0.03845254 11.00268531 -6.0625 9.5625 C-6.87123566 9.37172882 -7.67997131 9.18095764 -8.51321411 8.98440552 C-10.81270545 8.4409471 -13.11155579 7.89486915 -15.41015625 7.34765625 C-16.07829346 7.18966553 -16.74643066 7.0316748 -17.43481445 6.86889648 C-21.66119966 5.85805193 -25.83028305 4.71898527 -30 3.5 C-27.79932617 1.07647313 -25.71127613 -0.36254894 -22.75 -1.75 C-22.02296875 -2.10578125 -21.2959375 -2.4615625 -20.546875 -2.828125 C-14.07662927 -4.53499964 -6.39093881 -1.50683924 0 0 Z " fill="#C73729" transform="translate(625,58.5)"/>
<path d="M0 0 C2.35631093 0.0619267 4.70772695 0.14961116 7.0625 0.25 C8.37347656 0.29640625 9.68445313 0.3428125 11.03515625 0.390625 C16.54257058 0.86914673 21.7564621 2.45484041 27.06274414 3.93017578 C33.21450002 5.63037513 39.45534544 6.94415057 45.6875 8.3125 C60.52931593 11.60412891 75.27137805 15.23350053 90 19 C88.26282051 23.10119306 86.36023429 24.54458111 82.38085938 26.37548828 C77.81554389 27.57299413 73.69303471 26.17476175 69.25 24.9375 C68.33734375 24.70611328 67.4246875 24.47472656 66.484375 24.23632812 C63.64978593 23.51374678 60.8255409 22.75710006 58 22 C47.55092451 19.29749414 37.02817436 16.9311563 26.50146484 14.55493164 C21.3304289 13.38646014 16.16297666 12.20360291 11 11 C10.24001709 10.82329773 9.48003418 10.64659546 8.69702148 10.46453857 C6.46773278 9.94199359 4.24137861 9.40847485 2.015625 8.87109375 C0.99888702 8.63363182 0.99888702 8.63363182 -0.03839111 8.39137268 C-4.76968068 7.23031932 -4.76968068 7.23031932 -7 5 C-4.69 3.68 -2.38 2.36 0 1 C0 0.67 0 0.34 0 0 Z " fill="#C63729" transform="translate(520,110)"/>
<path d="M0 0 C0.74667938 0.18631989 1.49335876 0.37263977 2.26266479 0.56460571 C3.85503638 0.96238428 5.44655411 1.36359437 7.03726196 1.76797485 C11.20133102 2.82569692 15.37196169 3.85675108 19.54296875 4.88671875 C20.36680557 5.09051651 21.1906424 5.29431427 22.03944397 5.50428772 C29.73226511 7.39505884 37.46641699 9.03173714 45.23217773 10.59326172 C53.24680133 12.21239208 61.15928961 14.12559908 69.06640625 16.20703125 C67.78998863 20.14265224 66.62753401 22.06715678 63.06640625 24.20703125 C55.75661087 24.79047725 47.87417808 22.1557846 40.83203125 20.44140625 C39.67757507 20.16613098 38.5231189 19.89085571 37.3336792 19.60723877 C33.65975504 18.72996597 29.98803569 17.84385386 26.31640625 16.95703125 C21.50962789 15.80384277 16.70204304 14.65403262 11.89453125 13.50390625 C10.14662292 13.08461853 10.14662292 13.08461853 8.36340332 12.65686035 C-2.38232816 10.08452163 -13.15212462 7.62466061 -23.93359375 5.20703125 C-23.93359375 4.21703125 -23.93359375 3.22703125 -23.93359375 2.20703125 C-22.58786722 1.52348761 -21.23140425 0.86107035 -19.87109375 0.20703125 C-19.11699219 -0.16421875 -18.36289062 -0.53546875 -17.5859375 -0.91796875 C-11.64243001 -2.87871349 -5.89414804 -1.53052839 0 0 Z " fill="#C63729" transform="translate(458.93359375,163.79296875)"/>
<path d="M0 0 C0.54785156 0.13462646 1.09570312 0.26925293 1.66015625 0.40795898 C16.13452614 3.95153186 30.64731156 7.30177473 45.1875 10.5625 C46.48400482 10.8533699 46.48400482 10.8533699 47.80670166 11.15011597 C54.21171181 12.586638 60.61737187 14.02025106 67.02337646 15.45233154 C70.80794328 16.2984979 74.59169822 17.14819734 78.375 18 C79.25309326 18.19537354 80.13118652 18.39074707 81.03588867 18.59204102 C86.77210918 19.88605459 86.77210918 19.88605459 89 21 C89 21.66 89 22.32 89 23 C86.66847132 23.5100219 84.33536433 24.00811112 82 24.5 C81.35160156 24.64308594 80.70320312 24.78617188 80.03515625 24.93359375 C69.91280548 27.03824094 61.44815386 25.2212996 51.5 22.875 C50.11877165 22.55579843 48.73742239 22.2371196 47.35595703 21.91894531 C36.91195796 19.50095978 26.50739682 16.92813234 16.1171875 14.2890625 C10.09958054 12.76300271 4.05981903 11.34925658 -2 10 C-3.06351675 6.61608307 -3.21442982 5.4195366 -1.5625 2.1875 C-1.046875 1.465625 -0.53125 0.74375 0 0 Z " fill="#C73729" transform="translate(670,10)"/>
<path d="M0 0 C4.29 0 8.58 0 13 0 C13 4.29 13 8.58 13 13 C14.19625 12.505 15.3925 12.01 16.625 11.5 C24.56626834 8.88213709 33.49293964 8.53445949 41.25 11.875 C43.64819723 13.09213017 45.07874201 14.07874201 47 16 C47.14507695 18.74485593 47.18652423 21.38480543 47.125 24.125 C47.11597656 24.87910156 47.10695313 25.63320312 47.09765625 26.41015625 C47.0740687 28.27357254 47.03819719 30.13682593 47 32 C42.38 32 37.76 32 33 32 C32.505 24.575 32.505 24.575 32 17 C28.80693695 15.93564565 26.35556004 15.79934647 23 15.75 C21.948125 15.72421875 20.89625 15.6984375 19.8125 15.671875 C17.05127732 15.7986959 17.05127732 15.7986959 15.16796875 17.09765625 C13.44149643 19.9096697 13.47434723 22.41818591 13.3125 25.6875 C13.209375 27.770625 13.10625 29.85375 13 32 C8.71 32 4.42 32 0 32 C0 21.44 0 10.88 0 0 Z " fill="#FCEFEE" transform="translate(643,79)"/>
<path d="M0 0 C1.9375 2.1875 1.9375 2.1875 2.9375 8.1875 C-14.3875 8.6825 -14.3875 8.6825 -32.0625 9.1875 C-28.38320555 11.64036296 -26.58872093 11.41978878 -22.20703125 11.3828125 C-21.21457649 11.37856766 -21.21457649 11.37856766 -20.20207214 11.37423706 C-18.09286263 11.36305918 -15.98408075 11.33795981 -13.875 11.3125 C-12.44336552 11.30246707 -11.01172436 11.29334176 -9.58007812 11.28515625 C-6.07408023 11.26312795 -2.56833187 11.22861485 0.9375 11.1875 C-4.78374945 17.13533359 -10.74267449 17.22088354 -18.82202148 17.47265625 C-28.65806336 17.60366311 -39.64646325 17.39012562 -47.0625 10.1875 C-47.68725901 6.30011063 -47.77272306 4.2102212 -45.5 0.9375 C-33.33069625 -7.79943602 -12.65918622 -7.49217144 0 0 Z " fill="#FAEAEA" transform="translate(166.0625,93.8125)"/>
<path d="M0 0 C4.29 0 8.58 0 13 0 C13 4.29 13 8.58 13 13 C14.03125 12.505 15.0625 12.01 16.125 11.5 C24.42123013 8.40549143 33.95965657 9.10657396 42.23046875 11.953125 C44.64915748 13.38404902 45.66129305 14.50327047 47 17 C47.21326685 19.6729445 47.28545631 22.0926212 47.1875 24.75 C47.16719727 25.79607422 47.16719727 25.79607422 47.14648438 26.86328125 C47.1112945 28.57585541 47.05749155 30.28802941 47 32 C42.38 32 37.76 32 33 32 C32.8046875 28.41927083 32.609375 24.83854167 32.4140625 21.2578125 C32.32758894 17.91938301 32.32758894 17.91938301 30 16 C26.97695692 15.64129857 26.97695692 15.64129857 23.5625 15.6875 C22.40878906 15.67074219 21.25507813 15.65398437 20.06640625 15.63671875 C17.07853237 15.7758795 17.07853237 15.7758795 15.1328125 17.1328125 C13.51507562 19.79928916 13.47889153 22.0926175 13.3125 25.1875 C13.209375 27.105625 13.10625 29.02375 13 31 C8.71 31 4.42 31 0 31 C0 20.77 0 10.54 0 0 Z " fill="#FCF0EF" transform="translate(300,79)"/>
<path d="M0 0 C11.51944783 1.17545386 22.68067487 3.85132208 33.82421875 6.90625 C39.55353919 8.4403683 45.34663325 9.69717546 51.13354492 10.99243164 C62.45283657 13.53349711 73.72545121 16.26836214 85 19 C84 21 84 21 81.84765625 21.8515625 C80.46900391 22.23441406 80.46900391 22.23441406 79.0625 22.625 C78.16660156 22.88539063 77.27070312 23.14578125 76.34765625 23.4140625 C65.89996453 25.24271333 56.27433205 22.80090467 46.125 20.4375 C44.53487609 20.07488324 42.9446238 19.712829 41.35424805 19.35131836 C31.15055622 17.0187087 20.97191756 14.58064052 10.8125 12.0625 C9.6260791 11.76851318 8.4396582 11.47452637 7.21728516 11.17163086 C6.14140137 10.89971924 5.06551758 10.62780762 3.95703125 10.34765625 C3.01835205 10.11054932 2.07967285 9.87344238 1.11254883 9.62915039 C-1 9 -1 9 -2 8 C-2.29386153 4.27775401 -2.14809171 3.22213757 0 0 Z " fill="#C63629" transform="translate(509,119)"/>
<path d="M0 0 C1.98852539 0.11254883 1.98852539 0.11254883 4.53515625 0.64453125 C6.02233154 0.94738037 6.02233154 0.94738037 7.53955078 1.25634766 C9.25247314 1.62445557 9.25247314 1.62445557 11 2 C12.30564772 2.27088422 13.61148401 2.54086073 14.91748047 2.81005859 C19.42913613 3.74628932 23.93377323 4.7139294 28.4375 5.6875 C29.24359711 5.86130188 30.04969421 6.03510376 30.88021851 6.21417236 C45.1019213 9.28832848 59.22203364 12.67037621 73.31103516 16.30761719 C76.86944225 17.22387309 80.43398446 18.1138731 84 19 C81.31893938 20.78737375 79.39791729 21.67494028 76.375 22.625 C75.57835937 22.88539063 74.78171875 23.14578125 73.9609375 23.4140625 C66.69532194 24.85184922 59.84913958 23.81520847 52.71484375 22.171875 C51.42580894 21.88645844 51.42580894 21.88645844 50.11073303 21.59527588 C47.38425603 20.98903187 44.66098373 20.36953503 41.9375 19.75 C40.13885522 19.34943625 38.34002805 18.94969057 36.54101562 18.55078125 C23.61897851 15.67020479 10.71871733 12.68823487 -2 9 C-2.125 5.625 -2.125 5.625 -2 2 C-1.34 1.34 -0.68 0.68 0 0 Z " fill="#C63729" transform="translate(430,171)"/>
<path d="M0 0 C0.38218767 1.65614657 0.71395102 3.32457024 1 5 C0 6 0 6 -3.56773376 6.11352539 C-5.19742679 6.11337547 -6.82712438 6.10759534 -8.45678711 6.09765625 C-9.78888969 6.09546585 -9.78888969 6.09546585 -11.14790344 6.0932312 C-13.08659859 6.08941278 -15.02529019 6.08328333 -16.96397209 6.07516479 C-20.04805571 6.06241437 -23.13209629 6.0558867 -26.21620178 6.05102539 C-33.89332268 6.03763725 -41.57040392 6.0136897 -49.24749756 5.98962402 C-55.70700933 5.96972167 -62.16650469 5.95413889 -68.62603951 5.94406128 C-71.63556469 5.93766841 -74.64502207 5.92514979 -77.65452576 5.91235352 C-89.13995612 5.88233135 -100.54100357 6.21323794 -112 7 C-112.33 5.35 -112.66 3.7 -113 2 C-79.38332499 -7.88725736 -34.65608946 -3.20834412 0 0 Z " fill="#C53728" transform="translate(198,50)"/>
<path d="M0 0 C30.21271545 -1.46850109 56.89159375 1.8157775 86 10 C86 12.97 86 15.94 86 19 C82.56870924 20.14376359 81.29240434 19.82219216 77.8203125 19.03125 C76.23186523 18.67450195 76.23186523 18.67450195 74.61132812 18.31054688 C73.46083984 18.04306641 72.31035156 17.77558594 71.125 17.5 C69.92552734 17.22736328 68.72605469 16.95472656 67.49023438 16.67382812 C57.60753038 14.41214029 47.75492945 12.02665998 37.90600586 9.62280273 C25.31185125 6.56018953 12.66390513 3.75888389 0 1 C0 0.67 0 0.34 0 0 Z " fill="#C83729" transform="translate(697,0)"/>
<path d="M0 0 C8.38536591 -0.34568079 16.22898723 1.55140639 24.33886719 3.44091797 C26.73628195 3.99938032 29.13696129 4.54131995 31.53881836 5.08032227 C53.67435524 10.08907248 53.67435524 10.08907248 57.30249023 14.06274414 C58.67726341 17.18722863 58.80159861 18.85938305 58.67749023 22.18774414 C32.52429349 16.88464002 6.60399705 10.49129622 -19.32250977 4.18774414 C-16.52917553 1.39440991 -14.27719849 1.56062818 -10.38500977 1.06274414 C-9.13848633 0.89516602 -7.89196289 0.72758789 -6.60766602 0.55493164 C-4.4066946 0.34584583 -2.20367209 0.17813769 0 0 Z " fill="#C73729" transform="translate(635.322509765625,49.812255859375)"/>
<path d="M0 0 C12.07855689 -1.37410549 12.07855689 -1.37410549 16.60546875 1.86328125 C18.60530486 4.1557763 20.33010997 6.45941165 22 9 C22.99416651 10.33768858 23.9922228 11.67253517 25 13 C29.10871272 11.48434153 30.50499429 8.94384129 32.875 5.375 C35.7545213 1.67551451 37.04289119 0.18697479 41.69921875 -0.72265625 C45.19304459 -0.69086208 48.54177824 -0.4870042 52 0 C49.84570187 3.93309653 47.38093532 6.84245973 44.18359375 9.9765625 C43.25482422 10.894375 42.32605469 11.8121875 41.36914062 12.7578125 C40.39227672 13.71389903 39.41505947 14.66962467 38.4375 15.625 C36.51626882 17.50976616 34.5992952 19.39865523 32.68359375 21.2890625 C31.83337646 22.12131348 30.98315918 22.95356445 30.10717773 23.81103516 C27.86414505 26.01158139 27.86414505 26.01158139 26 29 C23.37302936 29.22137393 20.99106036 29.28162025 18.375 29.1875 C17.66859375 29.17396484 16.9621875 29.16042969 16.234375 29.14648438 C14.48925872 29.1111104 12.74453392 29.05730221 11 29 C11.44472656 28.54109375 11.88945312 28.0821875 12.34765625 27.609375 C12.91355469 26.99578125 13.47945313 26.3821875 14.0625 25.75 C14.63097656 25.14671875 15.19945312 24.5434375 15.78515625 23.921875 C17.20837924 22.11030596 17.20837924 22.11030596 16.80078125 20.11865234 C15.79662926 17.46193558 14.45099021 16.14072982 12.40234375 14.1796875 C11.32436523 13.12974609 11.32436523 13.12974609 10.22460938 12.05859375 C9.46986328 11.33800781 8.71511719 10.61742188 7.9375 9.875 C6.44223486 8.43944384 4.95111056 6.99955784 3.46484375 5.5546875 C2.800896 4.92030762 2.13694824 4.28592773 1.45288086 3.63232422 C0 2 0 2 0 0 Z " fill="#FDF2F1" transform="translate(351,90)"/>
<path d="M0 0 C0.90363281 -0.020625 1.80726563 -0.04125 2.73828125 -0.0625 C8.6125352 -0.09630866 14.55569261 0.23111058 19.75 3.25 C20.99707031 5.35839844 20.99707031 5.35839844 21.75 7.25 C19.64611431 7.30402274 17.54183286 7.34280256 15.4375 7.375 C13.67986328 7.40980469 13.67986328 7.40980469 11.88671875 7.4453125 C8.75 7.25 8.75 7.25 5.75 5.25 C2.54620876 5.00753217 2.54620876 5.00753217 -0.9375 5.125 C-2.11699219 5.14304687 -3.29648437 5.16109375 -4.51171875 5.1796875 C-5.86716797 5.21449219 -5.86716797 5.21449219 -7.25 5.25 C-7.25 6.24 -7.25 7.23 -7.25 8.25 C-6.30253906 8.21519531 -6.30253906 8.21519531 -5.3359375 8.1796875 C14.73956999 7.77470608 14.73956999 7.77470608 22.75 13.25 C22.625 15.5625 22.625 15.5625 21.75 18.25 C12.2632167 24.42744029 -2.87360057 23.38226899 -13.7109375 21.71875 C-18.25672416 20.49232075 -18.25672416 20.49232075 -20.25 19.25 C-20.91 17.93 -21.57 16.61 -22.25 15.25 C-17.63 15.25 -13.01 15.25 -8.25 15.25 C-8.25 15.91 -8.25 16.57 -8.25 17.25 C-2.64 17.25 2.97 17.25 8.75 17.25 C8.42 16.59 8.09 15.93 7.75 15.25 C5.47408415 14.82215159 3.17622025 14.50929242 0.875 14.25 C-0.49241425 14.08520402 -1.85960226 13.91852047 -3.2265625 13.75 C-3.9062207 13.6675 -4.58587891 13.585 -5.28613281 13.5 C-8.03652016 13.1498761 -10.76750318 12.71884664 -13.5 12.25 C-14.77617188 12.0334375 -14.77617188 12.0334375 -16.078125 11.8125 C-18.25 11.25 -18.25 11.25 -21.25 9.25 C-21.4375 6.625 -21.4375 6.625 -21.25 4.25 C-14.05075867 0.39924301 -8.00581365 0.0449134 0 0 Z " fill="#FBEBEB" transform="translate(532.25,88.75)"/>
<path d="M0 0 C1.0511499 0.01087646 1.0511499 0.01087646 2.12353516 0.02197266 C8.25413708 0.18596875 13.57462888 0.88712888 18.0625 5.375 C18.20757695 8.11985593 18.24902423 10.75980543 18.1875 13.5 C18.17847656 14.25410156 18.16945313 15.00820312 18.16015625 15.78515625 C18.1365687 17.64857254 18.10069719 19.51182593 18.0625 21.375 C13.7725 21.375 9.4825 21.375 5.0625 21.375 C4.93229167 18.0546875 4.80208333 14.734375 4.671875 11.4140625 C4.38980139 8.34350965 4.38980139 8.34350965 2.36328125 6.98046875 C-0.33128305 6.27137288 -2.71215387 6.07387896 -5.5 6.0625 C-6.92505859 6.03736328 -6.92505859 6.03736328 -8.37890625 6.01171875 C-10.91808703 6.19927076 -10.91808703 6.19927076 -12.734375 7.4765625 C-14.5114076 10.28058147 -14.4622615 12.77518222 -14.625 16.0625 C-14.728125 18.145625 -14.83125 20.22875 -14.9375 22.375 C-19.2275 22.375 -23.5175 22.375 -27.9375 22.375 C-27.9375 15.445 -27.9375 8.515 -27.9375 1.375 C-23.6475 1.375 -19.3575 1.375 -14.9375 1.375 C-14.9375 2.035 -14.9375 2.695 -14.9375 3.375 C-13.94621094 2.88773437 -12.95492188 2.40046875 -11.93359375 1.8984375 C-7.98233286 0.21142694 -4.26285751 -0.08683031 0 0 Z " fill="#FCF0EF" transform="translate(484.9375,88.625)"/>
<path d="M0 0 C2.70875995 0.63242669 5.42128954 1.24593704 8.13500977 1.85668945 C9.88200627 2.25598035 11.62876013 2.65633474 13.37524414 3.05786133 C14.17439743 3.23924149 14.97355072 3.42062164 15.79692078 3.60749817 C29.237784 6.77050715 29.237784 6.77050715 32.01977539 10.13208008 C32.65057683 12.89183638 32.55058446 15.49669903 32.51977539 18.31958008 C14.82152337 14.38952979 -2.83466077 10.32632532 -20.43701172 5.9855957 C-26.84245157 4.41189707 -33.21824706 2.90148706 -39.72900391 1.82275391 C-40.30690674 1.65670654 -40.88480957 1.49065918 -41.48022461 1.31958008 C-41.81022461 0.65958008 -42.14022461 -0.00041992 -42.48022461 -0.68041992 C-40.37971828 -1.1955806 -38.27452233 -1.69162475 -36.16772461 -2.18041992 C-34.9959668 -2.45885742 -33.82420898 -2.73729492 -32.61694336 -3.02416992 C-21.31201657 -5.05333028 -10.99567727 -2.57022332 0 0 Z " fill="#C63729" transform="translate(496.480224609375,159.680419921875)"/>
<path d="M0 0 C4.62 0 9.24 0 14 0 C14 1.98 14 3.96 14 6 C18.29 6 22.58 6 27 6 C27 7.65 27 9.3 27 11 C22.71 11 18.42 11 14 11 C14.33 14.3 14.66 17.6 15 21 C19.29 21.33 23.58 21.66 28 22 C28 23.65 28 25.3 28 27 C24.81267746 27.08797281 21.62567212 27.14071341 18.4375 27.1875 C17.54224609 27.21263672 16.64699219 27.23777344 15.72460938 27.26367188 C10.02324057 27.32632428 6.01865588 26.7821542 1 24 C-0.38226016 21.23547967 -0.09525387 18.9538637 -0.0625 15.875 C-0.05347656 14.77929688 -0.04445313 13.68359375 -0.03515625 12.5546875 C-0.02355469 11.71164063 -0.01195312 10.86859375 0 10 C-2.64 10 -5.28 10 -8 10 C-8 8.68 -8 7.36 -8 6 C-5.36 6 -2.72 6 0 6 C0 4.02 0 2.04 0 0 Z " fill="#FBECEB" transform="translate(703,84)"/>
<path d="M0 0 C11.40785533 1.3139306 22.717167 3.02860278 34.04299927 4.91418457 C38.78265612 5.702813 43.52401693 6.48101297 48.265625 7.2578125 C49.19661514 7.41036499 50.12760529 7.56291748 51.08680725 7.72009277 C59.79793804 9.14135583 68.52332403 10.44684064 77.25830078 11.71337891 C86.19498933 13.0125577 95.10110684 14.46450471 104 16 C104 17.65 104 19.3 104 21 C97.83316055 21.21264964 92.38647103 20.45147483 86.375 19.125 C80.84864571 17.92361863 75.35151273 16.87794193 69.74609375 16.11328125 C59.67685497 14.72319648 49.68998653 12.86263451 39.6875 11.0625 C37.7272544 10.71136035 35.76696813 10.3604477 33.80664062 10.00976562 C30.93064536 9.49517852 28.05469237 8.98036488 25.17892456 8.46450806 C16.78888937 6.95958097 8.39524246 5.47556999 0 4 C0 2.68 0 1.36 0 0 Z " fill="#C53628" transform="translate(186,163)"/>
<path d="M0 0 C19.84307099 2.43940038 39.6399392 4.98419003 59.36474609 8.25561523 C74.16155064 10.70804314 89.01513087 13.08320421 104 14 C104 15.65 104 17.3 104 19 C95.34148077 19.41696793 87.01643778 18.11813427 78.5 16.75 C77.02208248 16.51809785 75.54405317 16.28690706 74.06591797 16.05639648 C71.09514881 15.59230865 68.1250074 15.12447305 65.15527344 14.65380859 C61.53566287 14.08178473 57.91333344 13.53009926 54.2890625 12.98828125 C36.14533157 10.26999152 18.07361502 7.14515567 0 4 C0 2.68 0 1.36 0 0 Z " fill="#C53628" transform="translate(186,157)"/>
<path d="M0 0 C4.62 0 9.24 0 14 0 C14 9.9 14 19.8 14 30 C9.38 30 4.76 30 0 30 C0 20.1 0 10.2 0 0 Z " fill="#FDF3F2" transform="translate(432,81)"/>
<path d="M0 0 C8.64325016 0.5966107 17.221764 1.43610039 25.81640625 2.5234375 C26.99355698 2.67027985 28.1707077 2.81712219 29.38352966 2.96841431 C31.85849394 3.27790642 34.33326967 3.58890976 36.80786133 3.90136719 C40.52830193 4.37068605 44.24943766 4.83414737 47.97070312 5.296875 C59.55992197 6.74689765 71.13548197 8.23366167 82.67189026 10.06283569 C88.29905115 10.94545917 93.87595597 11.47827068 99.56640625 11.7890625 C102 12 102 12 105 13 C105 14.32 105 15.64 105 17 C98.39584561 17.15098405 92.10087109 16.7854104 85.57421875 15.79296875 C84.70593948 15.6669075 83.83766022 15.54084625 82.94306946 15.41096497 C80.1901888 15.00979434 77.43886396 14.59893025 74.6875 14.1875 C72.88746686 13.92316628 71.087337 13.65949033 69.28710938 13.39648438 C65.67443142 12.86794432 62.0622759 12.33601659 58.45043945 11.80175781 C46.96254925 10.1065676 35.4636515 8.48639689 23.96484375 6.8671875 C22.78728516 6.70089844 21.60972656 6.53460938 20.39648438 6.36328125 C18.02430418 6.02841674 15.65189573 5.69516641 13.27929688 5.36328125 C12.12365234 5.19957031 10.96800781 5.03585938 9.77734375 4.8671875 C8.75890381 4.72394043 7.74046387 4.58069336 6.69116211 4.43310547 C4.41181745 4.06627635 2.2257623 3.60542857 0 3 C0 2.01 0 1.02 0 0 Z " fill="#C53628" transform="translate(186,152)"/>
<path d="M0 0 C13.31967388 1.45970489 26.63084714 2.98812459 39.93896484 4.54956055 C42.13905041 4.80733491 44.3392454 5.06417712 46.53955078 5.32006836 C58.96213333 6.76483452 71.37038043 8.26281236 83.75201416 10.02867126 C90.82133791 11.02510643 97.86685971 11.64699476 105 12 C105 13.65 105 15.3 105 17 C98.00186353 17.24629364 91.40252217 16.28351358 84.5 15.1875 C76.07311107 13.89574181 67.65100999 12.6513009 59.1875 11.625 C46.61497646 10.09718263 34.0579972 8.45487502 21.5 6.8125 C19.37915049 6.53531823 17.25830088 6.25813723 15.13745117 5.98095703 C10.09154964 5.32128227 5.04574651 4.6608594 0 4 C0 2.68 0 1.36 0 0 Z " fill="#C43628" transform="translate(186,146)"/>
<path d="M0 0 C9.04769091 1.7233697 18.00675811 3.80617025 26.97753906 5.88623047 C29.62526354 6.5000611 32.27352378 7.11153597 34.921875 7.72265625 C36.62763607 8.11704956 38.3333663 8.51157626 40.0390625 8.90625 C40.81947906 9.08651733 41.59989563 9.26678467 42.40396118 9.45251465 C47.28268391 10.58477615 52.14418321 11.77312223 57 13 C47.18352764 19.54431491 26.77116744 17.05229122 15.5625 15 C9.56815151 13.3349032 5.54455254 10.07959498 2 5 C1.2802638 3.35555419 0.59850981 1.69233809 0 0 Z " fill="#C73729" transform="translate(669,23)"/>
<path d="M0 0 C3.63 0 7.26 0 11 0 C11.0246519 4.82380802 11.04283693 9.64757967 11.05493164 14.47143555 C11.05997174 16.11369464 11.06680378 17.75594923 11.07543945 19.39819336 C11.08751926 21.75375479 11.09323139 24.10925709 11.09765625 26.46484375 C11.10281754 27.20339096 11.10797882 27.94193817 11.11329651 28.7028656 C11.1134925 30.46898088 11.06194719 32.23497146 11 34 C10.505 34.495 10.505 34.495 10 35 C6.7 35 3.4 35 0 35 C0 23.45 0 11.9 0 0 Z " fill="#B02E1F" transform="translate(0,73)"/>
<path d="M0 0 C0 0.33 0 0.66 0 1 C-8.68373358 2.45663632 -17.30010717 3.46199087 -26.08203125 4.0703125 C-27.26222336 4.15626678 -28.44241547 4.24222107 -29.65837097 4.33078003 C-33.37607981 4.60042612 -37.09425639 4.86284246 -40.8125 5.125 C-43.35485239 5.30811289 -45.89717049 5.4917024 -48.43945312 5.67578125 C-54.62591706 6.12269027 -60.81278018 6.56368745 -67 7 C-55.48100656 7.22370125 -44.15992252 6.5313522 -32.6875 5.5625 C-31.00980886 5.4259003 -29.33207449 5.28983038 -27.65429688 5.15429688 C-19.76132596 4.51157727 -11.87614981 3.82695559 -4 3 C-4 4.32 -4 5.64 -4 7 C-27.97975822 9.54229844 -51.91594403 11.743707 -76 13 C-75.95875 12.21625 -75.9175 11.4325 -75.875 10.625 C-75.71271266 7.83883881 -75.71271266 7.83883881 -78 6 C-61.66558221 4.42756791 -45.32693742 2.90383329 -28.97595215 1.51309204 C-27.42284875 1.38057544 -25.86986653 1.24663001 -24.3170166 1.11117554 C-16.19594147 0.40470392 -8.16104068 -0.16901564 0 0 Z " fill="#C53728" transform="translate(371,150)"/>
<path d="M0 0 C6.50499261 1.03550637 12.92211926 2.44465339 19.35546875 3.84643555 C21.46523816 4.30494531 23.57631463 4.7570464 25.6875 5.20898438 C34.57277945 7.13165578 43.29166992 9.38527422 52 12 C52 8.7 52 5.4 52 2 C52.33 2 52.66 2 53 2 C53 12.23 53 22.46 53 33 C52.67 33 52.34 33 52 33 C52 27.06 52 21.12 52 15 C49.36 15 46.72 15 44 15 C44 21.27 44 27.54 44 34 C43.67 34 43.34 34 43 34 C43 27.07 43 20.14 43 13 C38.71 13 34.42 13 30 13 C30 13.66 30 14.32 30 15 C28.948125 14.690625 27.89625 14.38125 26.8125 14.0625 C22.97289362 13.05135811 19.39954712 12.90400224 15.4375 12.8125 C10.79365374 12.5161989 8.18971524 12.02123568 4.8125 8.75 C2.55845152 6.04402596 0.93681126 3.43497463 0 0 Z " fill="#C94236" transform="translate(590,77)"/>
<path d="M0 0 C1.98 0 3.96 0 6 0 C5.67 2.97 5.34 5.94 5 9 C6.98 9 8.96 9 11 9 C11 6.36 11 3.72 11 1 C15.29 1.33 19.58 1.66 24 2 C24.41043474 6.76104295 24.54331237 9.05825855 22.125 13.25 C16.1961658 19.39655975 8.08034542 20.10218384 0 21 C0 14.07 0 7.14 0 0 Z " fill="#C53628" transform="translate(123,124)"/>
<path d="M0 0 C12.77876495 -0.52992886 25.42930604 1.05097345 38.125 2.3125 C42.87212351 2.7749597 47.6196608 3.23310661 52.3671875 3.69140625 C53.53660889 3.80487396 54.70603027 3.91834167 55.91088867 4.0352478 C67.41767054 5.14774906 78.93290008 6.14327394 90.45361328 7.09887695 C100.95226909 7.97409571 100.95226909 7.97409571 105.66796875 8.54296875 C111.1164315 9.17609617 116.58430448 9.35166724 122.0625 9.5625 C123.11888672 9.60568359 124.17527344 9.64886719 125.26367188 9.69335938 C127.84234879 9.79837337 130.42110435 9.90052877 133 10 C133 10.33 133 10.66 133 11 C103.85574845 15.2334387 73.88715457 10.07138507 44.91064453 6.77832031 C35.91796783 5.75923253 26.9175838 4.81698706 17.91577148 3.88269043 C14.04630508 3.48034369 10.17746169 3.07211657 6.30859375 2.6640625 C4.46479126 2.46997803 4.46479126 2.46997803 2.58374023 2.27197266 C1.73110596 2.18222168 0.87847168 2.0924707 0 2 C0 1.34 0 0.68 0 0 Z " fill="#C43628" transform="translate(191,131)"/>
<path d="M0 0 C10.89498249 1.56556282 21.54283048 4.11438024 32.25 6.625 C34.07413901 7.04982171 35.89835722 7.4743035 37.72265625 7.8984375 C42.14935975 8.92837748 46.57496803 9.96290305 51 11 C46.61993559 13.92004294 42.5016727 13.6813319 37.3203125 13.89013672 C35.61337718 13.97095752 33.90763295 14.07799897 32.203125 14.19970703 C12.53978651 15.5578639 12.53978651 15.5578639 7.265625 11.91015625 C3.51468064 8.21883673 1.1454281 5.13839454 0 0 Z " fill="#C73629" transform="translate(430,184)"/>
<path d="M0 0 C0 1.32 0 2.64 0 4 C-8.15423256 5.40627724 -16.31722113 6.63745813 -24.51953125 7.7265625 C-25.66234055 7.87910492 -26.80514984 8.03164734 -27.98258972 8.18881226 C-30.37651488 8.5074866 -32.7705854 8.82507072 -35.16479492 9.14160156 C-38.82080159 9.62610014 -42.47582142 10.11762852 -46.13085938 10.609375 C-48.4686929 10.91970131 -50.80658167 11.22961172 -53.14453125 11.5390625 C-54.77283623 11.75932602 -54.77283623 11.75932602 -56.43403625 11.98403931 C-61.67147386 12.66926714 -66.7176543 13.17481615 -72 13 C-72 11.02 -72 9.04 -72 7 C-70.84814209 6.89453857 -69.69628418 6.78907715 -68.50952148 6.68041992 C-63.1516738 6.18818757 -57.79445208 5.68938037 -52.4375 5.1875 C-51.47782318 5.09762817 -50.51814636 5.00775635 -49.52938843 4.91516113 C-37.54074837 3.78644523 -25.58252496 2.60089957 -13.66381836 0.86401367 C-9.04827835 0.20106696 -4.6646741 -0.12489087 0 0 Z " fill="#C53628" transform="translate(367,171)"/>
<path d="M0 0 C8.20782236 0.48274382 15.87622391 2.2998203 23.8125 4.375 C26.19370571 4.98816372 28.5752153 5.60014853 30.95703125 6.2109375 C32.69267334 6.65711426 32.69267334 6.65711426 34.46337891 7.11230469 C39.95660688 8.49111022 45.47530978 9.75414065 51 11 C47.49989315 13.14980641 44.68354858 13.25750967 40.6171875 13.265625 C39.36679687 13.26820313 38.11640625 13.27078125 36.828125 13.2734375 C35.52359375 13.26570312 34.2190625 13.25796875 32.875 13.25 C31.59367188 13.25773438 30.31234375 13.26546875 28.9921875 13.2734375 C11.00584989 13.23658025 11.00584989 13.23658025 5.52734375 9.16015625 C4.74037109 8.12181641 4.74037109 8.12181641 3.9375 7.0625 C3.38964844 6.37285156 2.84179688 5.68320313 2.27734375 4.97265625 C1 3 1 3 0 0 Z " fill="#C63629" transform="translate(510,132)"/>
<path d="M0 0 C0 1.32 0 2.64 0 4 C-14.29764361 5.80777198 -28.61314316 7.42469503 -42.94699097 8.91516113 C-44.68193921 9.09581195 -46.41674408 9.27784548 -48.15139771 9.46130371 C-50.62264138 9.72200608 -53.09440856 9.97702736 -55.56640625 10.23046875 C-56.2989563 10.308452 -57.03150635 10.38643524 -57.78625488 10.46678162 C-62.54799581 10.94613979 -67.21387339 11.06628239 -72 11 C-72 9.35 -72 7.7 -72 6 C-70.90534424 5.91435791 -69.81068848 5.82871582 -68.68286133 5.74047852 C-64.61051623 5.42107391 -60.53849246 5.09772162 -56.46655273 4.77319336 C-54.70622092 4.6334485 -52.94580446 4.4947655 -51.18530273 4.35717773 C-48.65064713 4.15890052 -46.11632333 3.95677062 -43.58203125 3.75390625 C-42.79850784 3.6934462 -42.01498444 3.63298615 -41.2077179 3.57069397 C-37.40084557 3.26225956 -33.73350248 2.7917744 -30 2 C-26.2161398 1.56218313 -22.42027228 1.26014594 -18.625 0.9375 C-17.10132813 0.80118164 -17.10132813 0.80118164 -15.546875 0.66210938 C-10.34333738 0.21271294 -5.22268323 -0.11033838 0 0 Z " fill="#C53628" transform="translate(367,165)"/>
<path d="M0 0 C0 1.32 0 2.64 0 4 C-53.74008208 10.57865937 -53.74008208 10.57865937 -72 10 C-72 8.68 -72 7.36 -72 6 C-59.72823735 4.44544446 -47.46073478 3.33712921 -35.125 2.4375 C-31.75250067 2.18757829 -28.38015586 1.93560978 -25.0078125 1.68359375 C-24.21127258 1.62464935 -23.41473267 1.56570496 -22.59405518 1.50497437 C-17.46346884 1.12202338 -12.34124604 0.68533892 -7.22216797 0.16821289 C-4.80730915 -0.01458624 -2.42084931 -0.0280624 0 0 Z " fill="#C43628" transform="translate(367,159)"/>
<path d="M0 0 C3.3 0 6.6 0 10 0 C9.34 1.32 8.68 2.64 8 4 C7.33314062 6.45672892 7.33314062 6.45672892 8 9 C12.60276666 13.71235634 16.82815278 15.76034932 23.515625 16.265625 C30.91594887 16.2346613 37.82567371 15.89064599 45 14 C44.51817796 18.57730938 44.51817796 18.57730938 42.41015625 20.296875 C39.03858092 21.28047882 35.94476981 21.26371366 32.4375 21.25 C31.76525391 21.25773437 31.09300781 21.26546875 30.40039062 21.2734375 C26.71577164 21.25880148 25.14384852 21.09589902 22 19 C19.38300312 18.58904302 16.81917517 18.25767989 14.1875 18 C12.78452708 17.86034924 11.38214668 17.71459976 9.98046875 17.5625 C9.05077271 17.47162109 9.05077271 17.47162109 8.10229492 17.37890625 C5.33215847 16.87963186 2.67032541 15.89010847 0 15 C0 10.05 0 5.1 0 0 Z " fill="#AF3022" transform="translate(575,94)"/>
<path d="M0 0 C4.29 0 8.58 0 13 0 C13 6.6 13 13.2 13 20 C8.71 20 4.42 20 0 20 C0 13.4 0 6.8 0 0 Z " fill="#FEF6F6" transform="translate(562,90)"/>
<path d="M0 0 C0.495 1.485 0.495 1.485 1 3 C-0.60681641 3.07347656 -0.60681641 3.07347656 -2.24609375 3.1484375 C-3.64325639 3.22345294 -5.0403905 3.2990013 -6.4375 3.375 C-7.14455078 3.4059375 -7.85160156 3.436875 -8.58007812 3.46875 C-10.39239188 3.57280629 -12.19817988 3.77919892 -14 4 C-14.33 4.66 -14.66 5.32 -15 6 C-20.51757479 6.02467609 -26.03511761 6.04284856 -31.55273438 6.05493164 C-33.43066975 6.05996763 -35.3086012 6.06679671 -37.18652344 6.07543945 C-39.88217132 6.08753713 -42.57776747 6.09323557 -45.2734375 6.09765625 C-46.11619232 6.10281754 -46.95894714 6.10797882 -47.82723999 6.11329651 C-53.77225659 6.11387171 -53.77225659 6.11387171 -56 5 C-56 3.68 -56 2.36 -56 1 C-18.54823897 -0.19388403 -18.54823897 -0.19388403 0 0 Z " fill="#C53728" transform="translate(111,114)"/>
<path d="M0 0 C1.68359375 1.20703125 1.68359375 1.20703125 2.43359375 4.83203125 C2.55734375 6.50265625 2.55734375 6.50265625 2.68359375 8.20703125 C-1.40290178 11.13259055 -4.32613159 11.61429596 -9.31640625 11.58203125 C-10.51265625 11.58976562 -11.70890625 11.5975 -12.94140625 11.60546875 C-16.55618816 11.17872366 -18.49111414 10.48104685 -21.31640625 8.20703125 C-21.62890625 5.01953125 -21.62890625 5.01953125 -21.31640625 2.20703125 C-14.82476682 -1.33386298 -7.13415483 -2.44221489 0 0 Z " fill="#B43223" transform="translate(211.31640625,94.79296875)"/>
<path d="M0 0 C2.41176702 0.75071102 3.9043408 1.56297655 6 3 C6 4.98 6 6.96 6 9 C0.31951241 12.89519149 -6.30772176 13.06372883 -13 12 C-15.90234375 9.97265625 -15.90234375 9.97265625 -18 8 C-17.68555989 5.091429 -17.45680756 3.45572507 -15.3515625 1.35546875 C-10.72646662 -1.31049183 -5.16877751 -0.49958444 0 0 Z " fill="#B03223" transform="translate(614,94)"/>
<path d="M0 0 C3.43770829 -0.05385444 6.87457642 -0.09360344 10.3125 -0.125 C11.28896484 -0.14175781 12.26542969 -0.15851563 13.27148438 -0.17578125 C14.20927734 -0.18222656 15.14707031 -0.18867187 16.11328125 -0.1953125 C16.97735596 -0.20578613 17.84143066 -0.21625977 18.73168945 -0.22705078 C21 0 21 0 24 2 C24.1875 4.625 24.1875 4.625 24 7 C18.4560148 9.80512399 14.22729121 10.3935213 8.0625 10.1875 C7.28326172 10.17396484 6.50402344 10.16042969 5.70117188 10.14648438 C3.80047596 10.11150224 1.90014166 10.05770959 0 10 C0 6.7 0 3.4 0 0 Z " fill="#CA4134" transform="translate(253,86)"/>
<path d="M0 0 C3.63 0 7.26 0 11 0 C11.0246519 4.82380802 11.04283693 9.64757967 11.05493164 14.47143555 C11.05997174 16.11369464 11.06680378 17.75594923 11.07543945 19.39819336 C11.08751926 21.75375479 11.09323139 24.10925709 11.09765625 26.46484375 C11.10281754 27.20339096 11.10797882 27.94193817 11.11329651 28.7028656 C11.1134925 30.46898088 11.06194719 32.23497146 11 34 C10 35 10 35 7.71484375 35.09765625 C6.34005859 35.08025391 6.34005859 35.08025391 4.9375 35.0625 C4.01839844 35.05347656 3.09929687 35.04445312 2.15234375 35.03515625 C1.44207031 35.02355469 0.73179687 35.01195312 0 35 C0 34.34 0 33.68 0 33 C2.97 32.505 2.97 32.505 6 32 C6.33 22.76 6.66 13.52 7 4 C4.69 3.67 2.38 3.34 0 3 C0 2.01 0 1.02 0 0 Z " fill="#C33628" transform="translate(0,73)"/>
<path d="M0 0 C4.29703085 0.83755686 6.05213215 2.75734537 9 6 C10.11375 7.2065625 10.11375 7.2065625 11.25 8.4375 C13.26866372 11.39340044 13.76839452 13.44871598 14 17 C13.67 17.99 13.34 18.98 13 20 C10.69 20.33 8.38 20.66 6 21 C5.62875 19.14375 5.62875 19.14375 5.25 17.25 C4.51741035 14.20816039 4.24987621 13.22782831 1.875 11.0625 C-0.80336269 8.11630104 -0.31441492 5.6763304 -0.140625 1.828125 C-0.09421875 1.22484375 -0.0478125 0.6215625 0 0 Z " fill="#C53628" transform="translate(372,151)"/>
<path d="M0 0 C1.38747437 0.00616333 1.38747437 0.00616333 2.80297852 0.01245117 C3.8297168 0.01438477 4.85645508 0.01631836 5.91430664 0.01831055 C7.53175781 0.03667969 7.53175781 0.03667969 9.18188477 0.05541992 C10.22538086 0.05606445 11.26887695 0.05670898 12.34399414 0.05737305 C31.66678645 0.16532161 31.66678645 0.16532161 33.74438477 2.24291992 C33.78519259 4.24250356 33.78692833 6.24337246 33.74438477 8.24291992 C32.42438477 8.24291992 31.10438477 8.24291992 29.74438477 8.24291992 C29.24938477 5.76791992 29.24938477 5.76791992 28.74438477 3.24291992 C14.88438477 2.74791992 14.88438477 2.74791992 0.74438477 2.24291992 C0.74438477 6.86291992 0.74438477 11.48291992 0.74438477 16.24291992 C-4.25561523 12.24291992 -4.25561523 12.24291992 -4.81420898 9.73510742 C-4.77424805 8.87143555 -4.73428711 8.00776367 -4.69311523 7.11791992 C-4.67120117 6.2490918 -4.64928711 5.38026367 -4.62670898 4.48510742 C-4.10702296 1.34510978 -3.18426719 0.34293169 0 0 Z " fill="#B02F20" transform="translate(168.255615234375,80.757080078125)"/>
<path d="M0 0 C4.95 0 9.9 0 15 0 C15 2.64 15 5.28 15 8 C14.16855469 8.20496094 13.33710938 8.40992187 12.48046875 8.62109375 C11.39378906 8.89050781 10.30710938 9.15992187 9.1875 9.4375 C7.56908203 9.83775391 7.56908203 9.83775391 5.91796875 10.24609375 C3.9259157 10.76077412 1.95188476 11.34937175 0 12 C0 8.04 0 4.08 0 0 Z " fill="#C53829" transform="translate(124,81)"/>
<path d="M0 0 C4.15113191 1.67903992 7.16556833 4.57729006 10 8 C6.81265541 9.03130592 4.80530163 8.93742152 1.5859375 8.07421875 C0.74160156 7.85443359 -0.10273438 7.63464844 -0.97265625 7.40820312 C-1.84792969 7.17037109 -2.72320312 6.93253906 -3.625 6.6875 C-10.38370053 4.893019 -17.12605385 3.29358349 -24 2 C-17.68919984 -2.2072001 -7.30259743 -1.2075387 0 0 Z " fill="#C43628" transform="translate(512,154)"/>
<path d="M0 0 C0.94470657 -0.00637985 1.88941315 -0.0127597 2.86274719 -0.01933289 C4.39864754 -0.02100212 4.39864754 -0.02100212 5.96557617 -0.02270508 C7.54165901 -0.02769768 7.54165901 -0.02769768 9.14958191 -0.03279114 C11.37640952 -0.03786119 13.60324475 -0.04019944 15.83007812 -0.04003906 C19.23409614 -0.04222066 22.63778762 -0.06036222 26.04174805 -0.0793457 C28.20385631 -0.08228059 30.36596612 -0.08426475 32.52807617 -0.08520508 C34.05486748 -0.09598335 34.05486748 -0.09598335 35.61250305 -0.10697937 C37.04374763 -0.10236443 37.04374763 -0.10236443 38.50390625 -0.09765625 C39.33948563 -0.09908127 40.175065 -0.10050629 41.03596497 -0.10197449 C43.84978652 0.18668152 45.93689735 0.84002037 48.44604492 2.14526367 C48.94104492 3.63026367 48.94104492 3.63026367 49.44604492 5.14526367 C44.9279844 5.39626703 44.9279844 5.39626703 42.54925537 4.15737915 C40.1992622 3.02650589 38.63830544 2.87218592 36.04467773 2.82641602 C35.18408752 2.80654633 34.32349731 2.78667664 33.43682861 2.76620483 C32.05693756 2.74887802 32.05693756 2.74887802 30.64916992 2.73120117 C29.70039978 2.71183502 28.75162964 2.69246887 27.77410889 2.67251587 C24.74817859 2.61280709 21.72221008 2.56636935 18.69604492 2.52026367 C16.64264305 2.4820759 14.58925706 2.4430237 12.53588867 2.40307617 C7.50606996 2.30711259 2.47617627 2.22304921 -2.55395508 2.14526367 C-2.55395508 3.13526367 -2.55395508 4.12526367 -2.55395508 5.14526367 C-4.20395508 5.14526367 -5.85395508 5.14526367 -7.55395508 5.14526367 C-7.17895508 3.20776367 -7.17895508 3.20776367 -6.55395508 1.14526367 C-4.16245312 -0.05048731 -2.66958826 0.01221318 0 0 Z " fill="#AF2E1F" transform="translate(50.553955078125,74.854736328125)"/>
<path d="M0 0 C1.65 0 3.3 0 5 0 C5.495 2.475 5.495 2.475 6 5 C5.34402832 5.02505615 4.68805664 5.0501123 4.01220703 5.07592773 C1.04959817 5.1917326 -1.91268031 5.31452886 -4.875 5.4375 C-5.90753906 5.47681641 -6.94007813 5.51613281 -8.00390625 5.55664062 C-8.99003906 5.59853516 -9.97617188 5.64042969 -10.9921875 5.68359375 C-11.90339355 5.72025146 -12.81459961 5.75690918 -13.75341797 5.79467773 C-16.03483481 5.86577065 -16.03483481 5.86577065 -18 7 C-20.47556696 7.17682621 -22.89749895 7.27730822 -25.375 7.3125 C-26.38433594 7.35600586 -26.38433594 7.35600586 -27.4140625 7.40039062 C-29.3984375 7.42578125 -29.3984375 7.42578125 -33 7 C-34.32 5.68 -35.64 4.36 -37 3 C-24.79 2.67 -12.58 2.34 0 2 C0 1.34 0 0.68 0 0 Z " fill="#B53123" transform="translate(170,99)"/>
<path d="M0 0 C6.78661213 0.78914095 13.36149367 2.41274811 20 4 C20 4.66 20 5.32 20 6 C17.23058394 6.83830973 14.45964931 7.67082034 11.6875 8.5 C10.90181641 8.73847656 10.11613281 8.97695312 9.30664062 9.22265625 C8.54931641 9.44824219 7.79199219 9.67382812 7.01171875 9.90625 C6.31522217 10.11572266 5.61872559 10.32519531 4.90112305 10.54101562 C3 11 3 11 0 11 C0 7.37 0 3.74 0 0 Z " fill="#C6392B" transform="translate(658,80)"/>
<path d="M0 0 C0 0.33 0 0.66 0 1 C-8.67597746 2.46357303 -17.26882286 3.43980377 -26.046875 4 C-28.46095237 4.16645108 -30.87501447 4.33312385 -33.2890625 4.5 C-37.04828632 4.75345307 -40.80767827 5.00377734 -44.56738281 5.25 C-48.22782217 5.49182516 -51.88732016 5.74518927 -55.546875 6 C-56.68211609 6.07089844 -57.81735718 6.14179688 -58.98699951 6.21484375 C-60.02608459 6.28832031 -61.06516968 6.36179688 -62.13574219 6.4375 C-63.05361511 6.49808594 -63.97148804 6.55867187 -64.91717529 6.62109375 C-65.94817352 6.80865234 -65.94817352 6.80865234 -67 7 C-67.33 7.66 -67.66 8.32 -68 9 C-69.27875 9.061875 -70.5575 9.12375 -71.875 9.1875 C-72.59429687 9.22230469 -73.31359375 9.25710937 -74.0546875 9.29296875 C-74.69664062 9.19628906 -75.33859375 9.09960938 -76 9 C-76.66 8.01 -77.32 7.02 -78 6 C-61.66558221 4.42756791 -45.32693742 2.90383329 -28.97595215 1.51309204 C-27.42284875 1.38057544 -25.86986653 1.24663001 -24.3170166 1.11117554 C-16.19594147 0.40470392 -8.16104068 -0.16901564 0 0 Z " fill="#BC3324" transform="translate(371,150)"/>
<path d="M0 0 C0.33 0.99 0.66 1.98 1 3 C-1.85195222 4.42597611 -4.32461175 4.1320252 -7.5 4.125 C-8.6653125 4.12757812 -9.830625 4.13015625 -11.03125 4.1328125 C-14 4 -14 4 -16 3 C-16 2.34 -16 1.68 -16 1 C-20.29 1 -24.58 1 -29 1 C-29 0.34 -29 -0.32 -29 -1 C-19.59970222 -3.65245423 -9.45541556 -1.41200872 0 0 Z " fill="#B23A2D" transform="translate(540,103)"/>
<path d="M0 0 C5.48094366 -0.049467 10.96175713 -0.0857514 16.44287109 -0.10986328 C18.30715194 -0.11991593 20.17141703 -0.13356005 22.03564453 -0.15087891 C24.71651091 -0.17515953 27.39716866 -0.18649047 30.078125 -0.1953125 C30.91055725 -0.20563507 31.7429895 -0.21595764 32.60064697 -0.22659302 C39.74669236 -0.22797609 39.74669236 -0.22797609 43 2 C43 4.31 43 6.62 43 9 C42.01 9 41.02 9 40 9 C39.505 6.03 39.505 6.03 39 3 C31.10613413 2.13774394 23.31283207 1.84570911 15.375 1.875 C14.28832031 1.87113281 13.20164063 1.86726563 12.08203125 1.86328125 C11.05207031 1.86457031 10.02210938 1.86585937 8.9609375 1.8671875 C7.56560791 1.86887939 7.56560791 1.86887939 6.14208984 1.87060547 C4.01763445 1.761304 4.01763445 1.761304 3 3 C2.76712992 4.68183948 2.58735834 6.3712416 2.4375 8.0625 C2.31181641 9.44115234 2.31181641 9.44115234 2.18359375 10.84765625 C2.12300781 11.55792969 2.06242188 12.26820312 2 13 C0.68 12.34 -0.64 11.68 -2 11 C-1.34 11 -0.68 11 0 11 C0 7.37 0 3.74 0 0 Z " fill="#C23527" transform="translate(162,80)"/>
<path d="M0 0 C5.45194237 -0.41017748 8.25595005 0.42194549 12.6171875 3.8125 C13.92905122 4.95640885 15.2283098 6.11578489 16.4921875 7.3125 C13.07298761 8.4522333 11.70919997 8.1364037 8.23828125 7.38671875 C7.21927734 7.16693359 6.20027344 6.94714844 5.15039062 6.72070312 C4.08755859 6.48287109 3.02472656 6.24503906 1.9296875 6 C0.86298828 5.77376953 -0.20371094 5.54753906 -1.30273438 5.31445312 C-9.25300578 3.56730672 -9.25300578 3.56730672 -11.5078125 1.3125 C-7.6757783 0.81804397 -3.83306161 0.47764008 0 0 Z " fill="#C63729" transform="translate(667.5078125,47.6875)"/>
<path d="M0 0 C3.89505947 -0.20373055 7.78874911 -0.32777065 11.6875 -0.4375 C12.79029297 -0.49615234 13.89308594 -0.55480469 15.02929688 -0.61523438 C23.06855724 -0.78524894 23.06855724 -0.78524894 25.88525391 1.58935547 C27.26953125 3.52734375 27.26953125 3.52734375 29 7 C19.18867268 5.56327384 9.62328026 3.34881011 0 1 C0 0.67 0 0.34 0 0 Z " fill="#C63628" transform="translate(753,0)"/>
<path d="M0 0 C1.29550781 -0.02126953 1.29550781 -0.02126953 2.6171875 -0.04296875 C5.2491288 0.19890748 6.86480544 0.85766459 9.125 2.1875 C8.125 5.1875 8.125 5.1875 6.125 6.1875 C4.31551505 6.30926503 2.50103729 6.36295792 0.6875 6.375 C-0.28058594 6.38917969 -1.24867188 6.40335937 -2.24609375 6.41796875 C-4.875 6.1875 -4.875 6.1875 -7.875 4.1875 C-7.545 3.1975 -7.215 2.2075 -6.875 1.1875 C-4.42528376 -0.03735812 -2.73265539 0.02027192 0 0 Z " fill="#FBEBEA" transform="translate(567.875,79.8125)"/>
<path d="M0 0 C0.96808594 -0.01417969 1.93617188 -0.02835937 2.93359375 -0.04296875 C5.5625 0.1875 5.5625 0.1875 8.5625 2.1875 C10.88637947 2.58137788 13.22043749 2.92236085 15.5625 3.1875 C15.2325 4.1775 14.9025 5.1675 14.5625 6.1875 C13.89605469 6.12691406 13.22960937 6.06632812 12.54296875 6.00390625 C11.16044922 5.87822266 11.16044922 5.87822266 9.75 5.75 C8.75742187 5.65976563 7.76484375 5.56953125 6.7421875 5.4765625 C5.69289063 5.38117188 4.64359375 5.28578125 3.5625 5.1875 C1.5 5 -0.5625 4.8125 -2.625 4.625 C-3.54667969 4.54121094 -4.46835937 4.45742187 -5.41796875 4.37109375 C-6.08441406 4.31050781 -6.75085938 4.24992187 -7.4375 4.1875 C-7.4375 3.1975 -7.4375 2.2075 -7.4375 1.1875 C-4.84996844 -0.10626578 -2.88791015 0.01917603 0 0 Z " fill="#CB4A3E" transform="translate(532.4375,92.8125)"/>
<path d="M0 0 C0 3.63 0 7.26 0 11 C-4.65214095 9.13914362 -5.72244046 8.27755954 -9 5 C-11.63222962 3.74563813 -11.63222962 3.74563813 -14 3 C-13.67 2.34 -13.34 1.68 -13 1 C-8.63585999 0.14428627 -4.43923267 -0.10827397 0 0 Z " fill="#AE2E1F" transform="translate(561,96)"/>
<path d="M0 0 C1.47906892 -0.02689216 2.95827483 -0.04634621 4.4375 -0.0625 C5.26121094 -0.07410156 6.08492187 -0.08570312 6.93359375 -0.09765625 C9 0 9 0 10 1 C10.04092937 3.33297433 10.04241723 5.66705225 10 8 C6.7 8 3.4 8 0 8 C0 5.36 0 2.72 0 0 Z " fill="#C43628" transform="translate(143,81)"/>
<path d="M0 0 C0.99 0 1.98 0 3 0 C3 8.58 3 17.16 3 26 C2.01 26 1.02 26 0 26 C0 17.42 0 8.84 0 0 Z " fill="#C53729" transform="translate(0,78)"/>
<path d="M0 0 C1.32 0.33 2.64 0.66 4 1 C4.33 3.31 4.66 5.62 5 8 C0.85616082 10.99145723 -2.12128981 11.38190014 -7.1875 11.3125 C-8.41855469 11.30863281 -9.64960938 11.30476563 -10.91796875 11.30078125 C-14 11 -14 11 -16 9 C-15.08476562 8.93941406 -14.16953125 8.87882812 -13.2265625 8.81640625 C-11.44378906 8.69072266 -11.44378906 8.69072266 -9.625 8.5625 C-7.84996094 8.44068359 -7.84996094 8.44068359 -6.0390625 8.31640625 C-3.08481099 8.18915064 -3.08481099 8.18915064 -1 7 C-0.59270772 4.67843403 -0.25561323 2.3431213 0 0 Z " fill="#C63C2E" transform="translate(209,95)"/>
<path d="M0 0 C1.216875 0.0103125 2.43375 0.020625 3.6875 0.03125 C5.5128125 0.01578125 5.5128125 0.01578125 7.375 0 C10.6875 0.53125 10.6875 0.53125 14.6875 4.53125 C7.4275 4.53125 0.1675 4.53125 -7.3125 4.53125 C-3.3125 0.53125 -3.3125 0.53125 0 0 Z " fill="#BD3426" transform="translate(140.3125,93.46875)"/>
<path d="M0 0 C6.86036401 0.65965039 13.34443923 2.2362764 20 4 C20 4.66 20 5.32 20 6 C12.91923749 6.40850553 6.80074041 4.90420731 0 3 C0 2.01 0 1.02 0 0 Z " fill="#B03021" transform="translate(575,106)"/>
<path d="M0 0 C2.64 0 5.28 0 8 0 C8 2.31 8 4.62 8 7 C5.36 7.33 2.72 7.66 0 8 C0 5.36 0 2.72 0 0 Z " fill="#AD2D1E" transform="translate(634,92)"/>
<path d="M0 0 C1.99954746 -0.04254356 4.00041636 -0.04080783 6 0 C7 1 7 1 7.0625 4.5625 C7.041875 5.696875 7.02125 6.83125 7 8 C4.69 8 2.38 8 0 8 C0 5.36 0 2.72 0 0 Z " fill="#AF2E1F" transform="translate(43,127)"/>
<path d="M0 0 C3.96 0 7.92 0 12 0 C12 1.32 12 2.64 12 4 C7.71 4 3.42 4 -1 4 C-0.34 3.67 0.32 3.34 1 3 C0.67 2.01 0.34 1.02 0 0 Z " fill="#C33627" transform="translate(375,139)"/>
<path d="M0 0 C3.25281528 -0.48792229 5.34713084 -0.40014561 8.1796875 1.3359375 C10.1667909 2.84217602 12.1029114 4.38217825 14 6 C10.36804504 7.21065165 8.93468371 6.62784815 5.3125 5.5625 C4.31863281 5.27503906 3.32476563 4.98757812 2.30078125 4.69140625 C1.54152344 4.46324219 0.78226563 4.23507813 0 4 C0 2.68 0 1.36 0 0 Z " fill="#C73B2E" transform="translate(575,102)"/>
<path d="M0 0 C0.90105469 0.01804687 1.80210937 0.03609375 2.73046875 0.0546875 C3.41753906 0.07789062 4.10460937 0.10109375 4.8125 0.125 C4.8125 1.115 4.8125 2.105 4.8125 3.125 C-1.1275 3.62 -1.1275 3.62 -7.1875 4.125 C-7.5175 5.115 -7.8475 6.105 -8.1875 7.125 C-8.375 4.75 -8.375 4.75 -8.1875 2.125 C-4.87379 -0.08414 -3.8428979 -0.09981553 0 0 Z " fill="#B23224" transform="translate(665.1875,93.875)"/>
<path d="M0 0 C0.66 0.33 1.32 0.66 2 1 C1.67 2.65 1.34 4.3 1 6 C-1.64 6 -4.28 6 -7 6 C-7 5.01 -7 4.02 -7 3 C-4.69631264 1.93347808 -2.35981813 0.93578995 0 0 Z " fill="#C43C2E" transform="translate(197,94)"/>
<path d="M0 0 C1.32 0 2.64 0 4 0 C3.34 4.29 2.68 8.58 2 13 C0.68 12.34 -0.64 11.68 -2 11 C-1.34 11 -0.68 11 0 11 C0 7.37 0 3.74 0 0 Z " fill="#C73D30" transform="translate(162,80)"/>
<path d="M0 0 C1.98 0 3.96 0 6 0 C6.33 1.32 6.66 2.64 7 4 C4.69 4 2.38 4 0 4 C0 2.68 0 1.36 0 0 Z " fill="#B02E1F" transform="translate(43,136)"/>
<path d="M0 0 C0.33 1.32 0.66 2.64 1 4 C0.01 4.66 -0.98 5.32 -2 6 C-2.66 5.34 -3.32 4.68 -4 4 C-6.57061311 3.35232207 -6.57061311 3.35232207 -9 3 C-9 2.67 -9 2.34 -9 2 C-6.03 1.34 -3.06 0.68 0 0 Z " fill="#CB544A" transform="translate(619,108)"/>
<path d="M0 0 C2.31 0 4.62 0 7 0 C7.33 0.99 7.66 1.98 8 3 C6.02 3.99 6.02 3.99 4 5 C4 4.34 4 3.68 4 3 C2.68 2.34 1.36 1.68 0 1 C0 0.67 0 0.34 0 0 Z " fill="#C63B2E" transform="translate(612,100)"/>
<path d="M0 0 C1.98 0 3.96 0 6 0 C6 0.99 6 1.98 6 3 C4.02 3 2.04 3 0 3 C0 2.01 0 1.02 0 0 Z " fill="#AD2D1E" transform="translate(128,134)"/>
<path d="M0 0 C0 1.32 0 2.64 0 4 C-1.98 4 -3.96 4 -6 4 C-2.25 0 -2.25 0 0 0 Z " fill="#C03A2E" transform="translate(139,94)"/>
</svg>
