<?xml version="1.0" standalone="no"?>
<!DOCTYPE svg PUBLIC "-//W3C//DTD SVG 20010904//EN"
 "http://www.w3.org/TR/2001/REC-SVG-20010904/DTD/svg10.dtd">
<svg version="1.0" xmlns="http://www.w3.org/2000/svg"
 width="1024.000000pt" height="1536.000000pt" viewBox="0 0 1024.000000 1536.000000"
 preserveAspectRatio="xMidYMid meet">

<g transform="translate(0.000000,1536.000000) scale(0.100000,-0.100000)"
fill="#000000" stroke="none">
<path d="M0 7680 l0 -7680 5120 0 5120 0 0 7680 0 7680 -5120 0 -5120 0 0
-7680z m4742 6046 c178 -48 308 -210 342 -426 18 -111 21 -387 6 -475 -28
-156 -159 -333 -295 -397 l-70 -32 -235 -1 -235 0 -6 200 c-9 295 -10 1140 -1
1150 13 14 431 -2 494 -19z m1554 8 c72 -21 168 -86 210 -143 38 -52 84 -183
84 -240 0 -49 -24 -60 -132 -63 -93 -3 -97 0 -128 94 -28 88 -62 124 -124 133
-55 9 -115 -6 -139 -33 -10 -10 -33 -68 -53 -128 -34 -106 -35 -114 -37 -274
-1 -135 2 -182 20 -261 30 -138 51 -173 126 -204 90 -37 143 -13 192 89 19 40
35 78 35 84 0 7 19 26 42 43 39 27 47 30 93 23 106 -14 128 -50 100 -159 -49
-185 -152 -290 -319 -325 -90 -18 -165 -6 -271 44 -144 68 -198 147 -252 364
-25 98 -27 124 -27 307 0 176 3 211 23 290 48 186 124 285 264 344 61 26 85
30 155 31 48 0 107 -7 138 -16z m-3947 -56 c11 -35 43 -139 70 -231 52 -178
162 -497 172 -497 10 0 149 380 257 705 l27 80 102 3 c57 1 117 -1 135 -6 l33
-8 3 -666 3 -665 -29 -6 c-17 -3 -69 -3 -116 0 l-86 6 -1 421 0 421 -24 -80
c-60 -209 -248 -743 -269 -763 -10 -10 -25 -13 -49 -8 -33 6 -37 11 -72 99
-97 240 -183 470 -229 612 l-26 80 5 -170 c3 -93 8 -270 12 -392 l6 -221 -47
-7 c-52 -8 -152 -2 -163 9 -13 13 -41 1300 -30 1330 6 14 26 16 151 16 l144 0
21 -62z m1671 53 c24 -7 25 -11 28 -90 2 -53 -1 -88 -9 -97 -9 -11 -52 -14
-213 -14 -110 0 -207 -4 -214 -8 -9 -7 -12 -46 -10 -163 l3 -154 155 -6 c85
-3 156 -7 158 -7 1 -1 2 -44 2 -96 0 -112 11 -106 -170 -106 -85 0 -130 -4
-138 -12 -15 -15 -17 -344 -2 -353 6 -3 107 -8 226 -10 118 -1 218 -6 222 -10
10 -10 6 -185 -4 -195 -5 -5 -163 -12 -352 -16 l-342 -7 -1 539 c0 296 -3 595
-5 663 -3 68 -3 130 0 137 4 12 63 14 323 13 175 -1 329 -4 343 -8z m1517 -5
c11 -11 15 -1298 4 -1315 -7 -11 -36 -15 -115 -16 -59 0 -111 2 -116 5 -5 3
-10 275 -10 665 l-2 660 34 7 c42 8 195 4 205 -6z m1744 -7 c29 -11 38 -41
110 -349 17 -74 53 -225 79 -335 105 -439 143 -614 137 -629 -5 -13 -25 -16
-120 -16 -80 0 -117 4 -124 13 -5 6 -20 67 -32 134 -13 67 -29 127 -36 133 -8
7 -69 10 -166 8 l-153 -3 -26 -133 c-15 -73 -31 -137 -37 -143 -13 -13 -187
-8 -200 5 -8 8 20 152 77 391 54 229 92 401 187 843 8 39 20 75 27 79 31 21
224 22 277 2z m745 3 c11 -7 23 -478 24 -949 l0 -163 199 0 c168 0 202 -2 215
-16 12 -12 16 -37 16 -104 l0 -89 -37 -7 c-45 -8 -637 1 -652 10 -16 11 -15
1298 1 1314 13 13 215 17 234 4z m37 -1822 c80 -30 142 -74 180 -126 36 -49
63 -131 53 -161 -10 -30 -64 -55 -131 -60 -59 -5 -63 -4 -81 22 -68 98 -118
135 -182 135 -86 0 -150 -106 -111 -183 26 -50 110 -122 220 -187 174 -103
278 -219 309 -341 9 -35 9 -65 1 -119 -29 -188 -141 -301 -327 -331 -179 -29
-350 57 -426 214 -29 58 -35 116 -18 161 11 30 69 49 132 44 39 -3 43 -6 66
-51 58 -118 183 -182 257 -133 81 53 84 153 9 251 -31 41 -166 134 -246 169
-132 58 -222 186 -235 330 -7 87 2 129 49 222 41 82 104 129 211 159 91 24
177 20 270 -15z m-2373 1 c99 -37 209 -172 210 -257 0 -53 -65 -94 -149 -94
-46 0 -49 1 -80 50 -42 65 -116 110 -183 110 -42 0 -50 -4 -73 -35 -37 -48
-43 -103 -16 -158 23 -48 84 -98 259 -211 131 -84 194 -147 234 -232 27 -58
31 -76 30 -150 -1 -99 -19 -162 -66 -228 -44 -62 -87 -93 -166 -117 -82 -25
-224 -27 -301 -5 -140 42 -249 174 -249 303 0 45 4 55 25 69 14 9 54 19 89 21
l65 6 28 -49 c59 -101 128 -158 207 -171 58 -9 126 69 126 147 0 85 -77 171
-235 265 -188 111 -249 165 -291 260 -24 55 -26 68 -22 155 6 109 21 152 78
221 50 59 94 87 174 111 82 24 228 19 306 -11z m1435 2 c138 -44 238 -169 252
-316 5 -61 4 -66 -20 -81 -14 -10 -55 -22 -91 -28 -78 -13 -110 1 -121 54 -12
52 -53 126 -80 144 -14 9 -45 19 -68 21 -51 6 -113 -21 -146 -63 -105 -133
-102 -676 4 -802 57 -68 177 -79 234 -22 16 16 33 50 40 77 27 105 33 115 77
128 54 16 163 3 181 -21 23 -32 14 -90 -34 -216 -31 -80 -64 -123 -136 -172
-149 -103 -389 -85 -528 41 -63 57 -124 180 -150 303 -20 90 -23 135 -23 310
0 222 11 292 68 417 58 125 186 212 349 238 88 14 115 12 192 -12z m-4569 2
c177 -9 290 -100 328 -265 30 -128 15 -277 -39 -375 -73 -131 -223 -206 -420
-209 l-80 -1 -5 -240 -5 -240 -46 -7 c-25 -4 -78 -4 -118 0 l-72 7 1 660 c0
363 4 663 8 667 15 15 200 16 448 3z m1738 9 c34 -5 52 -13 63 -30 17 -27 110
-231 158 -349 18 -43 38 -81 43 -83 14 -4 31 30 127 253 43 99 83 186 89 194
8 10 33 12 108 9 99 -5 128 -16 128 -47 0 -9 -75 -167 -167 -351 l-168 -335 0
-299 c0 -290 -1 -299 -20 -307 -24 -9 -181 -11 -212 -3 l-23 6 0 315 0 315
-44 78 c-24 44 -53 103 -64 132 -11 29 -62 141 -112 248 -101 214 -110 238
-89 251 16 10 116 12 183 3z m-996 -16 c9 -9 12 -79 12 -254 l0 -241 178 -5
c97 -3 180 -4 185 -1 4 2 7 114 7 248 l0 245 23 5 c12 2 73 6 135 7 l113 3 -1
-660 c0 -363 -4 -663 -9 -668 -4 -4 -64 -6 -132 -5 l-124 3 0 290 c0 160 -1
296 -3 303 -1 9 -44 12 -171 12 -93 0 -176 -3 -185 -6 -14 -5 -16 -42 -15
-302 l0 -297 -33 -7 c-18 -3 -72 -4 -120 -1 -87 6 -88 6 -88 32 0 14 -3 313
-7 663 l-6 637 49 4 c112 8 180 7 192 -5z m3027 -9 c4 -5 8 -300 10 -654 3
-490 1 -646 -8 -652 -16 -9 -180 -17 -210 -9 l-24 6 -6 652 c-3 359 -3 656 -1
660 8 12 232 10 239 -3z m-1979 -1790 c134 -33 258 -181 242 -290 -4 -32 -58
-66 -118 -74 -68 -9 -87 0 -112 51 -26 56 -70 90 -135 105 -94 22 -153 -23
-153 -116 0 -89 63 -154 286 -295 106 -67 170 -128 208 -199 38 -72 48 -203
20 -277 -58 -158 -167 -246 -322 -260 -80 -8 -149 9 -253 62 -87 43 -128 80
-163 144 -24 44 -27 58 -21 97 7 51 38 86 94 110 48 21 72 10 106 -44 49 -79
113 -142 157 -154 32 -8 46 -7 76 8 80 39 106 136 58 217 -32 54 -141 144
-195 161 -43 13 -216 161 -249 212 -54 85 -66 126 -58 206 8 93 50 179 125
259 51 54 64 62 126 79 77 21 191 20 281 -2z m1531 -29 c125 -62 209 -169 221
-281 4 -41 1 -49 -20 -63 -13 -9 -48 -20 -77 -26 -73 -14 -100 1 -153 80 -51
77 -98 106 -170 103 -130 -3 -200 -161 -200 -448 1 -229 42 -367 129 -429 79
-55 190 -41 241 31 23 33 39 101 38 163 l-1 45 -40 3 c-82 5 -125 14 -140 28
-21 22 -21 156 0 178 13 12 49 15 210 16 176 0 194 -2 198 -18 3 -9 5 -169 4
-354 l-1 -337 -35 -6 c-42 -8 -79 16 -100 63 -8 18 -18 32 -23 32 -5 0 -32
-18 -61 -39 -29 -21 -70 -47 -92 -57 -57 -25 -182 -23 -272 4 -58 18 -79 31
-131 81 -117 115 -176 287 -188 551 -7 152 7 257 52 401 32 103 62 156 118
207 59 55 85 70 163 98 59 21 80 24 158 19 79 -4 100 -9 172 -45z m-857 31
l25 -7 -3 -659 c-2 -363 -7 -664 -11 -668 -13 -13 -184 -28 -216 -19 l-30 8
-3 668 -2 667 22 9 c27 10 181 11 218 1z m-2490 -11 c12 -8 14 -99 11 -672 -2
-491 -6 -665 -14 -670 -7 -5 -60 -7 -119 -6 l-107 3 -5 665 c-3 450 -1 669 6
678 12 14 205 17 228 2z m535 -6 c12 -5 308 -637 328 -701 26 -82 30 -25 24
330 -5 273 -4 366 5 375 8 8 50 12 119 12 136 0 139 -3 116 -103 -15 -62 -18
-152 -21 -648 -2 -317 -7 -582 -10 -588 -5 -7 -44 -11 -104 -11 l-98 0 -52
108 c-75 156 -255 546 -324 701 -32 74 -61 137 -64 140 -3 3 -3 -55 0 -129 4
-74 9 -284 11 -467 5 -263 3 -333 -7 -340 -7 -4 -60 -9 -119 -11 l-105 -4 3
658 c2 363 6 664 8 671 2 6 21 14 42 16 42 5 229 -2 248 -9z m3483 4 c9 -9 12
-79 12 -252 0 -133 4 -246 8 -252 10 -16 362 -26 367 -10 1 6 8 123 15 261 8
169 15 252 23 258 13 9 183 2 210 -9 16 -6 17 -55 16 -669 l0 -662 -89 -10
c-48 -6 -104 -7 -124 -4 l-36 6 -1 260 c-1 143 -3 272 -6 286 l-4 26 -171 7
c-96 5 -174 4 -179 -1 -17 -17 -22 -81 -26 -320 l-4 -242 -36 -7 c-46 -9 -180
1 -197 15 -9 8 -11 136 -10 568 2 821 0 751 27 756 52 10 193 7 205 -5z m1629
0 c9 -7 13 -41 13 -108 l0 -97 -31 -7 c-17 -3 -80 -6 -140 -6 l-109 0 -1 -62
c0 -35 -1 -288 -2 -563 l-2 -500 -125 0 -125 0 -5 560 -5 560 -135 6 c-74 3
-136 7 -137 8 -2 0 -3 48 -3 105 0 72 4 106 12 108 29 10 783 6 795 -4z m-85
-2132 c315 -5 354 -11 378 -56 11 -21 12 -53 25 -960 10 -702 8 -1790 -4
-1870 -18 -122 -19 -123 -125 -145 -144 -30 -420 -38 -1651 -48 -374 -3 -736
-9 -805 -13 -262 -14 -319 26 -364 256 -47 239 -58 450 -56 1155 1 425 -12
786 -32 905 -6 36 -10 150 -9 253 3 314 41 448 146 505 25 14 74 18 305 22
342 6 1792 4 2192 -4z m-4787 -30 c132 -22 188 -40 244 -75 25 -16 75 -41 111
-55 69 -28 240 -158 313 -239 53 -59 160 -221 208 -316 42 -83 53 -131 94
-426 26 -180 98 -516 139 -640 36 -113 53 -212 39 -231 -19 -25 -107 -76 -156
-90 -28 -9 -58 -23 -64 -32 -7 -9 -13 -41 -13 -71 -2 -227 -111 -431 -290
-544 -105 -65 -145 -78 -264 -83 -60 -2 -113 -7 -117 -11 -4 -5 -19 -55 -33
-113 -36 -146 -65 -168 -146 -109 l-42 31 6 96 c21 325 14 309 126 296 114
-13 268 -8 319 10 50 18 163 123 191 177 32 62 50 154 60 304 12 190 22 210
118 233 31 7 52 6 73 -2 24 -9 32 -8 39 4 6 8 7 22 4 30 -13 35 -78 265 -109
390 -19 74 -46 221 -60 327 -30 226 -48 290 -123 438 -58 115 -96 159 -277
322 -86 78 -105 87 -278 129 -78 19 -169 43 -202 54 -85 28 -214 39 -352 30
-100 -7 -132 -14 -210 -44 -51 -19 -137 -61 -190 -92 -54 -32 -127 -72 -163
-90 -138 -67 -260 -198 -334 -356 -63 -134 -78 -211 -84 -422 -6 -243 12 -331
101 -495 45 -82 61 -101 127 -151 152 -117 145 -108 146 -191 1 -41 5 -144 9
-229 8 -179 8 -169 6 -280 0 -47 -1 -103 -1 -125 1 -96 -2 -124 -15 -192 -8
-39 -12 -78 -9 -86 3 -9 -8 -23 -31 -37 -32 -20 -41 -21 -73 -11 -70 21 -65
-14 -67 468 -2 241 -5 445 -9 454 -4 8 -21 23 -38 33 -66 40 -154 140 -206
236 -134 246 -170 511 -117 855 25 163 41 216 82 271 13 17 23 36 23 41 0 6
22 44 48 84 53 80 152 178 211 208 20 11 77 49 127 86 49 37 112 78 139 92 28
14 60 34 73 44 13 10 60 32 105 50 45 17 87 35 94 41 24 20 114 26 353 23 171
-2 275 -8 345 -19z m-108 -381 c12 -8 31 -30 42 -49 16 -26 30 -35 61 -40 26
-4 54 -19 81 -43 36 -33 40 -41 36 -70 -7 -38 -5 -38 53 -18 39 14 46 14 78
-2 54 -27 91 -80 99 -141 l6 -52 43 0 c53 0 96 -33 112 -88 19 -61 15 -70 -35
-103 l-48 -30 -5 -74 c-7 -88 -30 -122 -92 -131 -39 -7 -77 -35 -97 -72 -9
-17 -21 -22 -52 -22 -48 0 -92 28 -115 71 -21 41 -50 36 -46 -8 2 -18 -6 -48
-17 -69 -12 -21 -21 -45 -21 -53 0 -12 -18 -13 -105 -8 -90 5 -110 9 -142 31
-50 34 -69 33 -93 -6 -27 -45 -25 -60 15 -108 75 -90 23 -190 -98 -190 -23 0
-48 -5 -54 -11 -7 -7 -9 -39 -6 -90 4 -48 1 -95 -7 -122 -10 -39 -17 -46 -50
-56 -61 -18 -80 -14 -117 27 -56 59 -66 92 -62 207 3 63 0 99 -6 98 -5 0 -49
-4 -97 -8 l-88 -7 -35 35 c-52 52 -46 103 20 180 50 58 47 67 -23 66 -61 -2
-114 19 -179 68 -56 43 -60 114 -12 191 11 18 9 25 -17 57 -54 69 -54 68 -45
108 18 79 62 113 134 104 35 -5 37 -3 37 21 0 15 -7 56 -15 91 -9 39 -12 68
-7 73 13 13 79 27 122 28 19 0 59 -11 88 -25 44 -20 56 -32 72 -70 19 -44 36
-57 45 -32 10 24 18 83 20 138 3 105 32 140 126 154 40 6 52 3 87 -20 53 -35
68 -59 77 -123 4 -28 11 -54 15 -57 5 -3 16 16 23 43 19 63 60 142 84 165 25
22 118 55 158 56 17 1 40 -6 52 -14z m1474 -473 c9 -10 44 -70 78 -134 l61
-118 32 63 c18 34 48 94 67 132 l36 70 55 0 c54 0 55 0 58 -31 2 -23 -20 -76
-86 -206 l-89 -175 -5 -137 c-4 -87 -10 -141 -18 -151 -18 -22 -93 -20 -113 3
-14 16 -15 33 -8 133 9 111 9 115 -17 169 -14 30 -35 71 -47 90 -43 70 -102
188 -119 240 -16 50 -16 53 1 66 23 18 91 9 114 -14z m2499 -2546 c148 -53
315 -202 364 -325 41 -105 60 -114 186 -86 282 63 592 -8 686 -156 28 -45 54
-144 54 -209 0 -57 -39 -195 -79 -277 -61 -125 -166 -280 -236 -347 -72 -69
-73 -61 29 -213 50 -75 110 -158 134 -185 83 -96 155 -279 156 -398 2 -124
-85 -247 -221 -318 -154 -79 -338 -109 -483 -78 -41 9 -84 16 -95 16 -11 0
-36 9 -56 19 -42 23 -52 18 -76 -34 -29 -65 -112 -197 -146 -235 -46 -51 -134
-115 -199 -145 -110 -50 -284 -48 -395 6 -95 46 -240 207 -301 336 -41 86 -39
84 -70 72 -15 -6 -81 -22 -147 -36 -138 -28 -195 -26 -340 12 -160 42 -239 89
-296 180 -52 83 -72 216 -45 309 27 93 89 216 162 326 38 57 77 117 87 134 10
17 41 54 68 81 27 28 49 54 49 58 0 4 -29 42 -63 85 -222 270 -319 516 -280
711 8 35 22 79 34 97 32 52 129 135 189 162 68 30 209 62 275 62 51 0 257 -40
308 -59 16 -6 32 -11 38 -11 5 0 23 28 40 61 17 34 60 101 95 148 36 47 79
108 97 136 42 64 102 99 202 117 89 15 204 9 275 -16z m-3760 -20 c360 -65
651 -234 890 -521 111 -133 174 -233 226 -363 76 -188 107 -377 106 -642 0
-190 -11 -240 -97 -456 -96 -243 -159 -341 -340 -532 -75 -79 -123 -118 -209
-173 -191 -121 -360 -193 -556 -235 -66 -14 -128 -19 -280 -19 -213 0 -215 0
-465 81 -156 50 -256 102 -365 190 -133 106 -211 184 -295 296 -118 156 -198
310 -231 443 -57 228 -58 234 -58 435 -1 228 13 304 93 535 75 218 127 310
266 480 107 130 192 208 309 283 95 61 291 151 371 171 142 36 500 51 635 27z"/>
<path d="M4502 13532 l-22 -3 2 -457 3 -457 60 -3 c182 -9 266 110 281 398 14
265 -40 442 -152 495 -35 16 -135 32 -172 27z"/>
<path d="M7128 13415 c-14 -47 -51 -215 -98 -447 -6 -32 -9 -62 -6 -66 8 -14
193 -24 215 -13 17 10 15 22 -36 243 -29 128 -57 249 -61 268 -7 28 -10 31
-14 15z"/>
<path d="M2358 11680 c-16 -10 -18 -30 -18 -190 0 -204 -2 -200 85 -200 88 0
133 18 170 69 76 104 67 250 -19 306 -30 20 -192 31 -218 15z"/>
<path d="M5705 7797 c-47 -22 -56 -39 -82 -164 l-24 -118 1 -652 c0 -359 2
-658 5 -665 2 -7 9 -125 15 -263 11 -270 28 -572 35 -620 13 -100 20 -132 44
-197 14 -39 33 -74 41 -78 8 -4 26 -13 39 -20 27 -14 395 -31 511 -24 36 2
252 6 480 9 398 4 976 21 990 30 3 2 118 7 256 10 137 3 268 11 291 17 74 18
78 29 78 197 -2 483 -19 1714 -29 2041 -11 354 -14 389 -33 432 -33 73 -57 83
-156 70 -87 -13 -1259 -11 -2037 2 -327 6 -400 5 -425 -7z m1400 -229 c29 -13
31 -19 42 -138 l8 -85 115 0 c68 0 130 6 152 13 21 8 67 40 103 73 48 43 73
59 94 59 39 0 55 -22 48 -65 -9 -55 -42 -100 -104 -141 -84 -56 -157 -75 -305
-81 l-127 -6 4 -61 c4 -58 6 -63 46 -98 68 -59 141 -81 247 -76 72 3 96 9 141
33 78 43 131 94 176 170 31 53 48 72 80 86 39 18 41 18 59 -1 19 -19 19 -21 2
-77 -52 -166 -122 -255 -255 -321 -81 -41 -86 -42 -183 -42 -68 0 -125 7 -181
21 -139 35 -164 7 -71 -84 34 -33 92 -74 147 -103 88 -46 96 -48 187 -52 80
-3 104 0 154 18 85 32 146 96 180 188 37 96 82 127 128 85 23 -21 23 -42 -2
-126 -47 -166 -140 -268 -276 -301 -59 -14 -89 -15 -206 -7 -125 9 -145 13
-213 45 -42 20 -90 47 -106 61 -32 26 -59 33 -59 14 0 -21 63 -101 148 -187
80 -80 95 -91 182 -127 86 -36 103 -40 180 -40 69 0 93 5 128 23 55 29 132
103 132 127 0 31 79 105 112 105 33 0 68 -31 68 -61 0 -56 -111 -218 -184
-269 -49 -33 -126 -63 -202 -79 -105 -21 -320 49 -475 155 -42 29 -71 43 -82
38 -9 -3 -17 -9 -17 -13 0 -50 90 -176 182 -253 123 -105 209 -138 355 -138
54 0 116 5 138 11 65 17 131 66 169 124 24 35 46 57 68 64 30 11 35 10 56 -14
28 -33 28 -74 1 -128 -34 -66 -67 -103 -122 -139 -89 -57 -126 -69 -242 -79
-60 -6 -110 -11 -111 -12 -1 -1 9 -21 23 -44 18 -31 39 -50 81 -70 76 -37 147
-37 220 0 56 30 81 26 102 -13 20 -38 11 -70 -33 -116 -35 -37 -54 -49 -112
-65 -84 -23 -134 -18 -220 21 -87 39 -149 99 -174 166 -12 30 -21 62 -21 72 0
9 -5 33 -10 54 -9 31 -17 39 -54 51 -88 30 -306 193 -306 229 0 4 -5 8 -10 8
-11 0 -7 -224 6 -350 6 -60 9 -67 45 -95 52 -40 119 -139 119 -176 0 -19 -8
-34 -25 -45 -44 -29 -68 -14 -140 91 -7 11 -16 17 -20 14 -3 -4 -7 -49 -9
-100 l-2 -94 -39 -3 c-47 -4 -55 7 -55 79 0 41 -4 58 -15 63 -8 3 -15 12 -15
21 0 22 -6 20 -81 -35 -39 -28 -74 -48 -79 -45 -6 4 -17 19 -25 35 -14 27 -13
30 16 67 102 129 157 215 162 255 12 87 12 321 1 325 -6 2 -25 -12 -41 -30
-34 -38 -182 -141 -283 -197 -65 -35 -65 -36 -71 -86 -12 -95 -37 -150 -87
-195 -88 -78 -217 -133 -334 -144 -131 -12 -189 17 -214 107 -19 67 -9 106 32
128 25 14 35 11 100 -30 36 -23 108 -35 158 -26 52 10 158 103 154 135 -3 24
-6 25 -58 23 -78 -4 -198 15 -247 39 -60 29 -99 73 -144 163 -43 86 -44 93
-27 130 21 48 43 43 125 -34 43 -39 102 -83 133 -98 51 -25 64 -27 180 -27
108 1 136 4 205 28 127 42 292 173 342 271 8 17 23 40 33 51 20 23 34 82 21
89 -5 3 -31 -11 -57 -32 -103 -81 -263 -166 -364 -194 -103 -28 -191 -26 -293
8 -70 23 -91 36 -146 88 -70 67 -118 150 -127 220 -6 39 -3 48 20 71 15 14 34
25 43 23 9 -2 40 -39 70 -83 29 -44 68 -94 86 -111 73 -68 240 -102 348 -71
86 26 204 102 299 193 104 101 129 141 112 179 -11 23 -17 26 -40 20 -15 -3
-40 -15 -57 -26 -71 -46 -219 -111 -272 -120 -68 -11 -208 -13 -249 -3 -75 18
-169 86 -227 165 -30 41 -66 162 -67 226 0 40 23 63 63 63 30 0 35 -6 77 -82
53 -97 126 -175 195 -209 75 -36 183 -33 291 9 71 28 90 42 155 110 80 82 125
140 116 149 -3 3 -35 -7 -71 -21 -100 -40 -237 -56 -333 -40 -97 17 -215 72
-271 127 -102 99 -145 268 -76 299 33 15 68 -11 111 -84 33 -57 115 -138 165
-164 17 -9 72 -17 141 -20 100 -6 118 -4 171 16 37 14 77 40 108 70 l50 48 -7
54 c-4 29 -9 55 -11 57 -1 1 -46 -5 -99 -14 -121 -22 -209 -16 -290 19 -81 36
-138 86 -169 148 -46 92 -30 148 43 148 39 0 67 -22 105 -83 11 -18 43 -41 84
-60 65 -31 71 -32 207 -32 l140 0 10 109 c9 87 15 111 30 122 23 17 134 19
170 2z"/>
<path d="M6945 4401 c-61 -16 -113 -51 -181 -123 -70 -73 -139 -190 -132 -223
2 -11 34 -30 83 -51 44 -18 132 -60 195 -94 63 -34 121 -59 130 -56 53 16 211
81 263 108 90 45 127 76 127 105 0 48 -90 180 -171 251 -80 70 -222 108 -314
83z"/>
<path d="M5964 3982 c-90 -27 -147 -64 -183 -120 -36 -57 -41 -116 -15 -216
24 -95 108 -262 152 -305 22 -20 65 -69 96 -108 31 -40 63 -73 70 -73 20 0
164 137 183 173 8 17 28 85 43 151 28 121 68 286 94 382 18 69 7 82 -91 105
-119 29 -274 33 -349 11z"/>
<path d="M7761 3980 c-123 -25 -128 -30 -101 -106 44 -121 61 -204 97 -469 5
-35 19 -53 112 -142 58 -56 109 -102 113 -103 11 0 166 188 203 245 76 118
113 215 122 320 4 39 -1 64 -20 106 -29 65 -67 98 -158 136 -87 36 -233 41
-368 13z"/>
<path d="M6583 3892 c-6 -4 -18 -25 -27 -47 -21 -53 -74 -243 -82 -296 l-7
-42 29 7 c29 8 77 36 234 139 141 93 134 86 114 108 -25 27 -248 139 -261 131z"/>
<path d="M7395 3869 c-27 -16 -85 -48 -127 -69 -42 -22 -79 -44 -82 -48 -11
-18 348 -212 390 -212 8 0 14 9 14 21 0 28 -35 166 -66 262 -24 71 -28 77 -52
76 -15 0 -49 -14 -77 -30z"/>
<path d="M6840 3563 c-184 -119 -402 -283 -417 -314 -29 -60 -33 -385 -6 -457
20 -53 245 -199 491 -320 l124 -61 96 51 c54 28 142 81 197 119 55 38 134 89
175 114 42 24 89 58 105 75 l30 31 3 227 c2 170 -1 233 -10 252 -14 27 -121
101 -263 182 -49 28 -129 75 -176 104 -100 63 -148 84 -186 84 -18 0 -76 -31
-163 -87z m318 -259 c122 -61 183 -221 136 -361 -33 -101 -77 -140 -199 -179
-121 -38 -131 -36 -213 50 -62 66 -72 81 -82 132 -19 89 -9 190 23 240 30 48
98 107 148 128 54 24 127 20 187 -10z"/>
<path d="M6954 3137 c-29 -26 -37 -42 -41 -80 -8 -73 37 -123 75 -85 9 9 15
10 20 2 13 -19 39 -23 61 -8 28 20 27 40 -5 81 -36 48 -21 76 31 57 24 -10 45
-58 45 -104 0 -52 21 -50 34 3 7 27 5 47 -9 82 -22 58 -62 85 -128 85 -40 0
-53 -5 -83 -33z"/>
<path d="M6223 3068 c-28 -30 -29 -38 -2 -67 28 -30 39 -13 30 47 l-6 44 -22
-24z"/>
<path d="M7784 3076 c-3 -7 -4 -39 -2 -70 l3 -56 38 26 c44 32 46 51 9 87 -32
30 -40 33 -48 13z"/>
<path d="M7950 2920 c-7 -5 -55 -50 -106 -100 l-92 -92 -15 -81 c-9 -45 -19
-107 -22 -137 -4 -30 -25 -124 -47 -207 -46 -171 -46 -168 26 -205 90 -47 273
-51 403 -10 130 41 223 141 223 238 0 109 -70 257 -184 388 -34 39 -80 98
-103 131 -49 73 -64 87 -83 75z"/>
<path d="M6017 2860 c-61 -55 -235 -320 -276 -419 -43 -101 -8 -244 72 -302
63 -46 187 -80 287 -81 95 0 220 23 257 48 26 17 26 20 4 109 -29 120 -52 222
-52 240 -2 40 -21 169 -29 189 -5 12 -11 34 -15 49 -5 24 -161 205 -186 215
-3 2 -32 -20 -62 -48z"/>
<path d="M7519 2567 c-39 -34 -196 -143 -278 -192 -28 -16 -51 -37 -51 -46 0
-10 26 -30 68 -52 69 -36 188 -87 204 -87 11 0 28 41 85 200 64 183 54 251
-28 177z"/>
<path d="M6444 2543 c3 -10 13 -54 21 -98 9 -44 28 -123 44 -175 27 -93 28
-95 57 -94 34 2 287 124 292 141 2 6 -59 42 -135 81 -137 69 -246 133 -258
152 -10 17 -27 11 -21 -7z"/>
<path d="M6910 2188 c-41 -22 -116 -60 -167 -83 -141 -64 -141 -63 -93 -179
68 -163 261 -307 376 -280 119 27 186 65 256 144 69 78 140 195 142 233 1 29
-2 30 -84 56 -47 15 -139 55 -204 89 -65 34 -126 62 -135 62 -9 0 -50 -19 -91
-42z"/>
<path d="M3010 4379 c-115 -17 -301 -75 -404 -126 -227 -114 -439 -329 -594
-604 -41 -72 -109 -276 -127 -382 -23 -129 -20 -414 6 -540 54 -265 156 -446
373 -662 164 -163 257 -222 454 -285 187 -60 278 -74 477 -74 167 0 251 14
400 65 320 111 634 400 760 698 45 106 102 282 115 355 23 131 6 408 -36 591
-21 88 -39 135 -91 235 -36 69 -86 156 -111 193 -51 78 -189 222 -277 288
-245 186 -649 292 -945 248z m-402 -361 c54 -108 144 -273 162 -298 11 -15 41
-72 66 -126 26 -54 60 -119 75 -145 16 -25 29 -51 29 -58 0 -6 -25 -27 -54
-46 -66 -42 -93 -76 -142 -178 -24 -50 -45 -82 -59 -87 -12 -4 -145 -11 -296
-14 -151 -3 -294 -8 -318 -12 l-44 -6 6 53 c10 83 64 285 99 374 44 111 79
174 161 290 70 99 256 295 280 295 7 0 23 -19 35 -42z m1299 -55 c128 -134
249 -332 326 -533 48 -125 65 -199 69 -290 l3 -75 -95 -7 c-52 -5 -201 -7
-330 -5 l-234 2 -7 30 c-16 79 -72 170 -148 243 l-76 73 24 42 c13 23 62 116
109 207 47 91 109 207 139 258 29 52 53 97 53 101 0 17 26 31 58 31 30 0 45
-10 109 -77z m-650 -734 c72 -35 173 -186 173 -259 0 -36 -57 -135 -99 -173
-46 -41 -87 -52 -171 -44 -75 6 -121 29 -187 91 -46 44 -55 59 -65 108 -9 43
-9 65 0 95 27 91 110 163 216 189 72 17 84 17 133 -7z m-212 -631 c64 -20 76
-20 184 -10 64 6 136 14 161 17 44 7 45 6 77 -39 17 -25 39 -64 47 -88 24 -70
125 -259 172 -321 24 -33 44 -65 44 -73 0 -24 -62 -85 -112 -110 -27 -14 -93
-37 -146 -51 -85 -23 -122 -27 -299 -31 -239 -5 -273 0 -480 80 -38 14 -53 26
-53 39 0 20 89 194 152 296 44 74 102 188 113 223 11 39 45 90 59 90 7 0 43
-10 81 -22z"/>
</g>
</svg>
