<?xml version="1.0" encoding="UTF-8"?>
<svg width="100%" height="auto" viewBox="0 0 1200 200" xmlns="http://www.w3.org/2000/svg" preserveAspectRatio="xMidYMid meet"><rect width="1200" height="200" fill="#D32F2F" /><defs><pattern id="dnaPattern" x="0" y="0" width="100" height="50" patternUnits="userSpaceOnUse"><path d="M0,25 Q25,10 50,25 Q75,40 100,25" stroke="rgba(255,255,255,0.1)" stroke-width="2" fill="none" /><path d="M0,25 Q25,40 50,25 Q75,10 100,25" stroke="rgba(255,255,255,0.1)" stroke-width="2" fill="none" /><line x1="0" y1="20" x2="0" y2="30" stroke="rgba(255,255,255,0.08)" stroke-width="1" /><line x1="20" y1="20" x2="20" y2="30" stroke="rgba(255,255,255,0.08)" stroke-width="1" /><line x1="40" y1="20" x2="40" y2="30" stroke="rgba(255,255,255,0.08)" stroke-width="1" /><line x1="60" y1="20" x2="60" y2="30" stroke="rgba(255,255,255,0.08)" stroke-width="1" /><line x1="80" y1="20" x2="80" y2="30" stroke="rgba(255,255,255,0.08)" stroke-width="1" /><line x1="100" y1="20" x2="100" y2="30" stroke="rgba(255,255,255,0.08)" stroke-width="1" /></pattern></defs><rect width="1200" height="200" fill="url(#dnaPattern)" /><g opacity="0.15"><rect x="950" y="70" width="60" height="30" rx="5" fill="rgba(255,255,255,0.15)" /><rect x="970" y="100" width="20" height="60" fill="rgba(255,255,255,0.12)" /><rect x="850" y="140" width="80" height="10" fill="rgba(255,255,255,0.1)" /></g><text x="600" y="115" text-anchor="middle" fill="white" font-family="Arial, sans-serif" font-size="48" font-weight="bold" letter-spacing="1">MedPhy Insight</text><g opacity="0.1"><text x="100" y="140" font-family="serif" font-size="40" fill="rgba(255,255,255,0.1)">γ</text><circle cx="150" cy="80" r="20" fill="none" stroke="rgba(255,255,255,0.1)" stroke-width="2" /></g></svg>