<?xml version="1.0" standalone="no"?>
<!DOCTYPE svg PUBLIC "-//W3C//DTD SVG 20010904//EN"
 "http://www.w3.org/TR/2001/REC-SVG-20010904/DTD/svg10.dtd">
<svg version="1.0" xmlns="http://www.w3.org/2000/svg"
 width="500.000000pt" height="113.000000pt" viewBox="0 0 500.000000 113.000000"
 preserveAspectRatio="xMidYMid meet">

<g transform="translate(0.000000,113.000000) scale(0.100000,-0.100000)"
fill="#000000" stroke="none">
<path d="M0 565 l0 -565 2500 0 2500 0 0 565 0 565 -2500 0 -2500 0 0 -565z
m864 379 c10 -4 16 -18 16 -35 0 -29 0 -29 -60 -29 l-60 0 0 -115 c0 -115 0
-115 -24 -115 -54 0 -56 4 -56 121 l0 109 -37 0 c-66 0 -83 9 -83 41 l0 29
144 0 c79 0 151 -3 160 -6z m140 0 c12 -4 16 -20 16 -55 l0 -49 75 0 75 0 0
55 c0 52 2 55 24 55 56 0 56 -1 56 -156 l0 -144 -24 0 c-48 0 -56 9 -56 61 l0
49 -75 0 -75 0 0 -55 c0 -52 -2 -55 -24 -55 -56 0 -56 1 -56 156 l0 144 24 0
c13 0 31 -3 40 -6z m607 -4 c11 -6 19 -21 19 -35 l0 -25 -115 0 c-108 0 -115
-1 -115 -20 0 -19 7 -20 98 -20 107 -1 136 -12 130 -52 -3 -22 -6 -23 -115
-26 -105 -2 -113 -4 -113 -22 0 -19 7 -20 96 -20 108 0 134 -9 134 -46 l0 -26
-141 4 c-180 4 -179 3 -179 154 0 143 1 144 161 144 66 0 129 -5 140 -10z
m573 -11 c25 -20 26 -23 26 -131 0 -130 -9 -148 -72 -148 -27 0 -38 -4 -38
-15 0 -19 -53 -20 -72 -2 -7 8 -31 16 -53 20 -64 10 -75 32 -75 153 0 141 3
144 149 144 94 0 112 -3 135 -21z m160 15 c13 -5 16 -25 16 -115 l0 -109 70 0
69 0 3 112 c3 122 6 128 64 114 24 -6 24 -7 24 -131 0 -165 0 -165 -145 -165
-165 0 -175 11 -175 185 l0 115 29 0 c16 0 36 -3 45 -6z m575 -9 c16 -8 31
-22 35 -30 3 -9 6 -70 6 -136 l0 -119 -24 0 c-48 0 -56 9 -56 61 l0 49 -75 0
-75 0 0 -55 c0 -52 -2 -55 -24 -55 -55 0 -56 3 -56 138 0 164 -2 162 137 162
72 0 113 -5 132 -15z m242 -72 l89 -87 0 87 c0 87 0 87 26 87 14 0 34 -5 45
-10 17 -10 19 -22 19 -139 0 -185 -20 -193 -152 -63 l-78 77 0 -83 c0 -89 -3
-93 -67 -76 -22 6 -23 10 -23 138 0 191 11 196 141 69z m533 81 c10 -4 16 -18
16 -35 0 -29 0 -29 -60 -29 l-60 0 0 -115 c0 -115 0 -115 -24 -115 -54 0 -56
4 -56 121 l0 109 -37 0 c-66 0 -83 9 -83 41 l0 29 144 0 c79 0 151 -3 160 -6z
m140 0 c13 -5 16 -25 16 -115 l0 -109 75 0 75 0 0 115 c0 115 0 115 24 115 55
0 56 -3 56 -138 0 -165 3 -162 -145 -162 -98 0 -116 3 -139 21 -26 20 -26 22
-26 150 l0 129 24 0 c13 0 31 -3 40 -6z m597 -23 c29 -29 29 -30 29 -150 0
-119 0 -121 -22 -121 -13 0 -33 3 -45 6 -22 6 -23 11 -23 115 0 90 -3 109 -15
109 -12 0 -15 -19 -15 -115 0 -115 0 -115 -24 -115 -54 0 -56 4 -56 121 0 90
-3 109 -15 109 -12 0 -15 -19 -15 -115 0 -113 0 -115 -22 -115 -13 0 -33 3
-45 6 -22 6 -23 10 -23 130 0 165 -1 164 151 164 109 0 111 0 140 -29z m-3277
-327 c10 -4 16 -18 16 -35 l0 -29 -115 0 -115 0 0 -80 0 -80 99 0 c120 0 131
-3 131 -42 l0 -30 -134 4 c-178 4 -176 3 -176 150 0 148 0 148 159 148 66 0
126 -3 135 -6z m147 -4 c17 -10 19 -22 19 -115 l0 -105 96 0 c108 0 134 -9
134 -46 l0 -26 -141 4 c-183 4 -179 0 -179 174 l0 124 26 0 c14 0 34 -5 45
-10z m578 -5 c16 -8 31 -22 35 -30 3 -9 6 -70 6 -136 l0 -119 -24 0 c-48 0
-56 9 -56 61 l0 49 -75 0 -75 0 0 -55 c0 -52 -2 -55 -24 -55 -55 0 -56 3 -56
138 0 164 -2 162 137 162 72 0 113 -5 132 -15z m395 9 c10 -4 16 -18 16 -35
l0 -29 -115 0 c-108 0 -115 -1 -115 -20 0 -18 7 -20 70 -20 70 0 137 -19 152
-43 4 -7 8 -34 8 -61 0 -80 -11 -86 -156 -86 -67 0 -129 3 -138 6 -10 4 -16
18 -16 35 l0 29 115 0 c108 0 115 1 115 20 0 18 -7 20 -64 20 -131 0 -166 21
-166 100 0 81 15 90 159 90 66 0 126 -3 135 -6z m384 -6 c7 -7 12 -22 12 -35
0 -23 -2 -23 -115 -23 -108 0 -115 -1 -115 -20 0 -18 7 -20 73 -20 94 0 138
-21 151 -71 10 -42 3 -81 -20 -103 -12 -13 -39 -16 -132 -16 -147 0 -164 4
-160 39 l3 26 113 3 c104 2 112 4 112 22 0 18 -7 20 -70 20 -120 0 -169 37
-156 119 10 65 24 71 166 71 85 0 130 -4 138 -12z m341 -3 c16 -8 31 -22 35
-30 8 -23 7 -98 -2 -111 -11 -17 -48 -34 -73 -34 -21 0 -22 -1 -4 -20 10 -11
26 -20 36 -20 35 0 49 -12 49 -41 0 -28 -2 -29 -46 -29 -42 0 -50 5 -103 55
-32 30 -63 55 -69 55 -8 0 -12 -20 -12 -55 0 -52 -2 -55 -24 -55 -56 0 -56 1
-56 156 l0 144 120 0 c87 0 129 -4 149 -15z m385 -6 c25 -20 26 -23 26 -133 0
-150 1 -149 -153 -144 -156 4 -157 5 -157 150 0 146 2 148 149 148 94 0 112
-3 135 -21z m365 6 c38 -19 41 -30 41 -146 0 -135 -4 -139 -145 -139 -57 0
-115 5 -129 11 -37 17 -48 57 -45 157 5 127 11 132 146 132 72 0 113 -5 132
-15z m370 0 c16 -8 31 -22 35 -30 3 -9 6 -70 6 -136 l0 -119 -24 0 c-54 0 -56
4 -56 121 0 90 -3 109 -15 109 -12 0 -15 -19 -15 -115 0 -113 0 -115 -22 -115
-13 0 -33 3 -45 6 -22 6 -23 11 -23 115 0 90 -3 109 -15 109 -12 0 -15 -19
-15 -115 0 -115 0 -115 -24 -115 -55 0 -56 3 -56 138 0 164 -2 162 137 162 72
0 113 -5 132 -15z"/>
<path d="M1980 800 c0 -73 2 -80 20 -80 16 0 20 7 20 30 0 26 4 30 28 30 32 0
52 -16 52 -42 0 -10 7 -18 15 -18 12 0 15 16 15 80 l0 80 -75 0 -75 0 0 -80z"/>
<path d="M2730 860 c0 -18 7 -20 75 -20 68 0 75 2 75 20 0 18 -7 20 -75 20
-68 0 -75 -2 -75 -20z"/>
<path d="M1690 510 c0 -18 7 -20 75 -20 68 0 75 2 75 20 0 18 -7 20 -75 20
-68 0 -75 -2 -75 -20z"/>
<path d="M2810 510 c0 -18 7 -20 75 -20 68 0 75 2 75 20 0 18 -7 20 -75 20
-68 0 -75 -2 -75 -20z"/>
<path d="M3180 450 l0 -80 75 0 75 0 0 80 0 80 -75 0 -75 0 0 -80z"/>
<path d="M3560 450 l0 -80 70 0 70 0 0 80 0 80 -70 0 -70 0 0 -80z"/>
</g>
</svg>
